<?xml version="1.0" encoding="utf-8"?>
<!-- Generator: Adobe Illustrator 27.5.0, SVG Export Plug-In . SVG Version: 6.00 Build 0)  -->
<svg version="1.1" xmlns="http://www.w3.org/2000/svg" xmlns:xlink="http://www.w3.org/1999/xlink" x="0px" y="0px"
	 viewBox="0 0 2475 1650" style="enable-background:new 0 0 2475 1650;" xml:space="preserve">
<g id="Background">
	<rect style="fill:#FFFFFF;" width="2475" height="1650"/>
</g>
<g id="Illustration">
	<g>
		
			<linearGradient id="SVGID_1_" gradientUnits="userSpaceOnUse" x1="112.5657" y1="1762.4059" x2="2410.9563" y2="93.3362" gradientTransform="matrix(0.9999 -0.0123 0.0119 0.9671 -102.8941 131.0624)">
			<stop  offset="0" style="stop-color:#DAE3FE"/>
			<stop  offset="1" style="stop-color:#E9EFFD"/>
		</linearGradient>
		<path style="fill:url(#SVGID_1_);" d="M2316.752,752.771c-59.93-85.192-185.268-129.687-190.097-258.41
			c-3.138-83.644,32.632-129.439-26.385-200.144c-142.663-170.909-359.478-188.47-543.504-114.066
			c-183.963,74.378-329.906,220.722-535.531,214.548c-111.982-3.363-216.652-57.603-327.569-66.656
			c-34.17-2.788-66.026,0.358-95.749,8.711c-111.423,31.315-208.742,144.94-244.371,270.281
			c-28.881,101.606,10.848,201.067-35.238,300.784c-49.122,106.285-147.521,180.903-171.036,303.2
			c-28.222,146.782,88.079,272.691,211.37,275.152c78.477,1.566,223.722-13.328,289.74-64.745
			c80.385-62.608,160.087-67.644,254.714-66.451c180.084,2.271,360.628,42.396,538.707,70.355
			c152.591,23.957,303.147,60.364,457.53,63.317c113.379,2.169,209.579,2.587,269.318-126.848
			C2240.052,1207.093,2442.453,931.461,2316.752,752.771z"/>
		<g>
			<g>
				<path style="fill:#91B3FA;" d="M448.171,856.044c-28.341-28.722-74.6-29.031-103.322-0.69
					c-28.722,28.341-29.031,74.6-0.69,103.322c0.002,0.002,0.004,0.004,0.006,0.006c15.756,15.965,23.891,37.928,22.36,60.306
					c-1.76,25.723,7.098,52.048,26.633,71.846l0.004,0.004c19.07,19.323,28.051,46.423,24.34,73.314
					c-4.34,31.453,5.466,64.5,29.491,88.848c41.046,41.598,108.041,42.045,149.639,0.999
					c41.597-41.045,42.044-108.041,0.999-149.638c-2.195-2.224-4.464-4.331-6.799-6.319c-22.872-19.474-36.7-47.516-38.24-77.517
					c-1.13-22.013-10.027-43.709-26.729-60.635c-7.338-7.436-15.617-13.379-24.46-17.826c-17.753-8.928-30.048-25.942-32.992-45.594
					C466.2,881.705,459.459,867.484,448.171,856.044z"/>
				<path style="fill:#BDD0FB;" d="M400.889,905.4c16.757,26.367,31.641,53.781,45.727,81.601
					c3.495,6.968,7.04,13.911,10.342,20.974l5.04,10.551l2.52,5.275l2.414,5.324l9.633,21.312l9.169,21.515
					c11.916,28.81,23.238,57.892,33.083,87.488l3.773,11.071c0.62,1.848,1.279,3.684,1.866,5.542l1.732,5.586l6.925,22.345
					c2.408,7.419,4.364,14.971,6.479,22.477l6.261,22.543c0.265,0.954-0.294,1.943-1.248,2.208
					c-0.954,0.266-1.943-0.294-2.208-1.248l-0.002-0.007l-0.015-0.054l-6.149-22.506c-2.077-7.494-3.996-15.035-6.367-22.444
					l-6.813-22.317l-1.703-5.579c-0.578-1.856-1.228-3.69-1.838-5.536l-3.717-11.06c-9.696-29.568-20.869-58.634-32.638-87.436
					l-9.059-21.51l-9.523-21.309l-2.387-5.325l-2.493-5.275l-4.986-10.552c-3.266-7.064-6.775-14.008-10.233-20.977
					c-13.931-27.811-28.702-55.283-45.256-81.578l-0.019-0.029c-0.294-0.467-0.154-1.085,0.314-1.379
					C399.979,904.797,400.595,904.934,400.889,905.4z"/>
				<path style="fill:#BDD0FB;" d="M428.815,966.343c-22.387,0-57.815-20.4-59.41-21.326c-0.478-0.277-0.64-0.89-0.363-1.367
					c0.277-0.476,0.889-0.64,1.367-0.363c0.411,0.238,41.358,23.82,62.462,20.785c0.549-0.075,1.054,0.302,1.132,0.848
					c0.079,0.547-0.301,1.054-0.847,1.133C431.778,966.25,430.325,966.343,428.815,966.343z"/>
				<path style="fill:#BDD0FB;" d="M434.035,965.053c-0.144,0-0.29-0.031-0.429-0.097c-0.499-0.237-0.711-0.834-0.474-1.332
					c0.136-0.287,13.623-28.979,13.259-54.324c-0.008-0.553,0.434-1.007,0.986-1.015c0.521-0.016,1.006,0.434,1.014,0.985
					c0.371,25.819-13.314,54.921-13.452,55.212C434.767,964.842,434.409,965.053,434.035,965.053z"/>
				<path style="fill:#BDD0FB;" d="M480.272,1065.656c-0.008,0-0.016,0-0.024,0c-35.535-0.83-72.178-28.021-72.543-28.296
					c-0.442-0.331-0.531-0.958-0.2-1.399c0.331-0.442,0.957-0.529,1.4-0.2c0.361,0.271,36.503,27.081,71.39,27.896
					c0.552,0.013,0.989,0.472,0.976,1.023C481.258,1065.224,480.814,1065.656,480.272,1065.656z"/>
				<path style="fill:#FFFFFF;" d="M481.25,1065.726c-0.25,0-0.501-0.094-0.695-0.282c-0.396-0.384-0.407-1.017-0.023-1.413
					c0.228-0.236,22.83-24.11,24.03-69.115c0.014-0.553,0.437-1.012,1.026-0.974c0.552,0.015,0.987,0.475,0.973,1.026
					c-1.222,45.828-24.359,70.213-24.593,70.454C481.772,1065.624,481.511,1065.726,481.25,1065.726z"/>
				<path style="fill:#FFFFFF;" d="M529.194,1192.073c-0.258,0-0.516-0.1-0.711-0.298c-0.388-0.393-0.384-1.025,0.009-1.414
					c0.275-0.271,27.539-27.613,31.637-67.472c0.056-0.55,0.548-0.938,1.097-0.893c0.55,0.057,0.949,0.548,0.893,1.098
					c-4.173,40.593-31.941,68.414-32.222,68.69C529.702,1191.978,529.448,1192.073,529.194,1192.073z"/>
				<path style="fill:#FFFFFF;" d="M526.87,1192.68c-6.305,0-36.636-1.432-68.403-27.23c-0.429-0.349-0.494-0.979-0.146-1.407
					c0.349-0.428,0.978-0.492,1.407-0.146c34.89,28.335,67.888,26.783,68.217,26.765c0.552-0.019,1.024,0.389,1.056,0.94
					c0.032,0.551-0.388,1.023-0.939,1.056C528.026,1192.659,527.616,1192.68,526.87,1192.68z"/>
			</g>
			<g>
				<path style="fill:#BDD0FB;" d="M148.098,1061.781c-16.788-48.9,9.244-102.151,58.145-118.939
					c48.9-16.788,102.151,9.244,118.939,58.144c0.001,0.003,0.002,0.006,0.003,0.009c9.33,27.185,29.888,49.048,56.438,60.056
					c30.518,12.653,55.669,37.833,67.24,71.538c11.286,32.877,37.247,58.675,70.199,69.74
					c38.579,12.955,70.918,43.062,85.154,84.528c24.313,70.821-13.388,147.944-84.21,172.257
					c-70.821,24.314-147.944-13.388-172.257-84.209c-1.3-3.787-2.423-7.592-3.372-11.406c-9.297-37.351-33.583-69.212-67.126-88.091
					c-24.612-13.853-44.43-36.437-54.323-65.254c-4.347-12.661-6.442-25.55-6.501-38.232c-0.117-25.462-12.624-49.273-33.493-63.86
					C167.257,1097.105,154.785,1081.259,148.098,1061.781z"/>
				
					<linearGradient id="SVGID_00000120543680925013422100000018267814571586469566_" gradientUnits="userSpaceOnUse" x1="231.8882" y1="1216.3958" x2="547.1563" y2="1216.3958">
					<stop  offset="0" style="stop-color:#DAE3FE"/>
					<stop  offset="1" style="stop-color:#E9EFFD"/>
				</linearGradient>
				<path style="fill:url(#SVGID_00000120543680925013422100000018267814571586469566_);" d="M233.591,1034.582
					c20.737,34.022,43.827,66.644,67.792,98.505c6.024,7.946,11.99,15.937,18.231,23.715l9.263,11.744l4.631,5.872l4.748,5.778
					l19.018,23.089l19.554,22.638c26.392,29.891,53.423,59.244,81.871,87.187l10.589,10.555c1.773,1.75,3.51,3.538,5.314,5.257
					l5.44,5.127l21.757,20.509c7.162,6.933,14.731,13.423,22.157,20.067l22.35,19.852l0.054,0.048
					c0.98,0.871,1.069,2.372,0.199,3.352c-0.871,0.98-2.372,1.069-3.352,0.199l-0.014-0.013l-22.258-20.083
					c-7.394-6.722-14.93-13.287-22.057-20.295l-21.649-20.73l-5.412-5.182c-1.795-1.737-3.521-3.543-5.285-5.312l-10.53-10.662
					c-28.289-28.227-55.141-57.85-81.339-87.996l-19.414-22.818l-18.956-23.199l-4.732-5.806l-4.615-5.898l-9.23-11.798
					c-6.219-7.813-12.163-15.84-18.164-23.82c-23.882-32.016-46.849-64.727-67.532-98.963c-0.26-0.43-0.122-0.989,0.308-1.249
					c0.43-0.26,0.989-0.122,1.249,0.309L233.591,1034.582z"/>
				
					<linearGradient id="SVGID_00000099653564739295186150000007967822030173088689_" gradientUnits="userSpaceOnUse" x1="280.8252" y1="1064.4098" x2="295.2937" y2="1064.4098">
					<stop  offset="0" style="stop-color:#DAE3FE"/>
					<stop  offset="1" style="stop-color:#E9EFFD"/>
				</linearGradient>
				<path style="fill:url(#SVGID_00000099653564739295186150000007967822030173088689_);" d="M281.824,1107.575
					c-0.196,0-0.393-0.058-0.567-0.177c-0.454-0.314-0.568-0.937-0.254-1.392c15.576-22.562,11.87-83.091,11.831-83.699
					c-0.036-0.551,0.382-1.026,0.934-1.063c0.559-0.018,1.027,0.384,1.063,0.934c0.162,2.514,3.79,61.831-12.181,84.965
					C282.454,1107.425,282.142,1107.575,281.824,1107.575z"/>
				
					<linearGradient id="SVGID_00000016058985567699438460000002835558723570015121_" gradientUnits="userSpaceOnUse" x1="208.6291" y1="1099.2144" x2="281.0856" y2="1099.2144">
					<stop  offset="0" style="stop-color:#DAE3FE"/>
					<stop  offset="1" style="stop-color:#E9EFFD"/>
				</linearGradient>
				<path style="fill:url(#SVGID_00000016058985567699438460000002835558723570015121_);" d="M280.086,1108.173
					c-0.006,0-0.012,0-0.018,0c-0.412-0.008-41.542-0.905-70.896-16.028c-0.491-0.253-0.684-0.855-0.431-1.347
					c0.253-0.489,0.856-0.685,1.347-0.431c28.945,14.912,69.608,15.799,70.016,15.806c0.552,0.01,0.992,0.466,0.982,1.018
					C281.076,1107.736,280.63,1108.173,280.086,1108.173z"/>
				
					<linearGradient id="SVGID_00000125579125591418896170000005528490665286605710_" gradientUnits="userSpaceOnUse" x1="368.1379" y1="1168.3073" x2="381.7695" y2="1168.3073">
					<stop  offset="0" style="stop-color:#DAE3FE"/>
					<stop  offset="1" style="stop-color:#E9EFFD"/>
				</linearGradient>
				<path style="fill:url(#SVGID_00000125579125591418896170000005528490665286605710_);" d="M369.138,1218.606
					c-0.142,0-0.287-0.03-0.424-0.095c-0.5-0.234-0.715-0.829-0.482-1.329c19.005-40.577,8.843-97.422,8.738-97.991
					c-0.1-0.544,0.259-1.065,0.802-1.165c0.539-0.105,1.065,0.259,1.165,0.802c0.106,0.576,10.386,58.039-8.894,99.202
					C369.874,1218.394,369.514,1218.606,369.138,1218.606z"/>
				
					<linearGradient id="SVGID_00000142140001304817971480000007750514358467860909_" gradientUnits="userSpaceOnUse" x1="273.7257" y1="1214.4548" x2="369.6602" y2="1214.4548">
					<stop  offset="0" style="stop-color:#DAE3FE"/>
					<stop  offset="1" style="stop-color:#E9EFFD"/>
				</linearGradient>
				<path style="fill:url(#SVGID_00000142140001304817971480000007750514358467860909_);" d="M340.765,1223.054
					c-16.915,0-40.21-3.101-66.46-15.289c-0.5-0.232-0.718-0.827-0.486-1.328c0.233-0.503,0.826-0.721,1.329-0.486
					c52.432,24.348,92.808,11.994,93.209,11.866c0.524-0.167,1.088,0.124,1.256,0.65c0.168,0.525-0.123,1.088-0.649,1.256
					C368.757,1219.788,358.119,1223.054,340.765,1223.054z"/>
				
					<linearGradient id="SVGID_00000091001904431977571750000008796041306009704834_" gradientUnits="userSpaceOnUse" x1="388.952" y1="1348.0183" x2="487.2771" y2="1348.0183">
					<stop  offset="0" style="stop-color:#DAE3FE"/>
					<stop  offset="1" style="stop-color:#E9EFFD"/>
				</linearGradient>
				<path style="fill:url(#SVGID_00000091001904431977571750000008796041306009704834_);" d="M440.28,1353.388
					c-15.256,0-32.885-2.128-50.679-8.804c-0.517-0.194-0.779-0.771-0.585-1.288c0.194-0.517,0.77-0.774,1.287-0.585
					c48.195,18.084,95.18,2.352,95.649,2.19c0.523-0.179,1.091,0.1,1.271,0.621c0.179,0.522-0.099,1.092-0.621,1.271
					C486.299,1346.897,466.914,1353.388,440.28,1353.388z"/>
				<path style="fill:#FFFFFF;" d="M487.628,1345.815c-0.168,0-0.339-0.043-0.496-0.132c-0.479-0.274-0.646-0.886-0.372-1.364
					c0.21-0.368,20.87-37.424,8.235-93.737c-0.121-0.539,0.218-1.073,0.757-1.194c0.537-0.127,1.073,0.217,1.194,0.757
					c12.815,57.113-8.236,94.794-8.45,95.168C488.312,1345.635,487.975,1345.815,487.628,1345.815z"/>
			</g>
		</g>
		<g>
			<g>
				<path style="fill:#91B3FA;" d="M2069.921,846.54c28.341-28.722,74.6-29.031,103.322-0.69
					c28.722,28.341,29.031,74.6,0.69,103.322c-0.002,0.002-0.004,0.004-0.006,0.006c-15.756,15.965-23.892,37.927-22.36,60.306
					c1.76,25.723-7.098,52.048-26.633,71.846c-0.002,0.002-0.003,0.004-0.003,0.004c-19.07,19.323-28.051,46.423-24.34,73.314
					c4.34,31.453-5.466,64.5-29.491,88.848c-41.046,41.598-108.041,42.045-149.639,0.999
					c-41.597-41.045-42.045-108.041-0.999-149.638c2.195-2.224,4.464-4.331,6.799-6.319c22.872-19.474,36.7-47.516,38.24-77.517
					c1.13-22.013,10.027-43.709,26.729-60.635c7.338-7.436,15.617-13.379,24.46-17.826c17.753-8.928,30.049-25.942,32.992-45.594
					C2051.892,872.202,2058.633,857.98,2069.921,846.54z"/>
				<path style="fill:#BDD0FB;" d="M2118.875,896.995c-16.554,26.295-31.325,53.768-45.256,81.578
					c-3.458,6.969-6.967,13.914-10.233,20.977l-4.986,10.552l-2.493,5.275l-2.387,5.325l-9.523,21.309l-9.059,21.511
					c-11.769,28.801-22.943,57.866-32.638,87.435l-3.717,11.06c-0.61,1.846-1.26,3.68-1.837,5.536l-1.703,5.579l-6.813,22.317
					c-2.37,7.41-4.289,14.95-6.366,22.444l-6.149,22.507l-0.015,0.053c-0.261,0.955-1.247,1.519-2.203,1.257
					c-0.956-0.261-1.518-1.247-1.257-2.202l0.002-0.008l6.261-22.542c2.115-7.506,4.072-15.058,6.479-22.478l6.926-22.345
					l1.731-5.586c0.587-1.858,1.246-3.693,1.865-5.542l3.773-11.07c9.845-29.597,21.167-58.68,33.083-87.489l9.169-21.515
					l9.633-21.311l2.414-5.325l2.52-5.275l5.041-10.551c3.302-7.063,6.847-14.006,10.342-20.974
					c14.085-27.819,28.969-55.233,45.727-81.6c0.296-0.467,0.914-0.604,1.38-0.308c0.466,0.296,0.604,0.914,0.307,1.38
					L2118.875,896.995z"/>
				<path style="fill:#BDD0FB;" d="M2089.277,956.839c-1.513,0-2.962-0.093-4.342-0.291c-0.546-0.079-0.926-0.586-0.847-1.133
					c0.079-0.546,0.585-0.934,1.132-0.848c21.099,3.028,62.051-20.546,62.462-20.785c0.478-0.277,1.089-0.114,1.367,0.363
					s0.115,1.09-0.363,1.367C2147.092,936.438,2111.664,956.839,2089.277,956.839z"/>
				<path style="fill:#BDD0FB;" d="M2084.057,955.549c-0.374,0-0.732-0.211-0.904-0.57c-0.138-0.291-13.823-29.393-13.453-55.212
					c0.008-0.547,0.454-0.985,1-0.985c0.005,0,0.01,0,0.015,0c0.552,0.008,0.994,0.462,0.986,1.015
					c-0.364,25.358,13.123,54.037,13.259,54.323c0.237,0.499,0.025,1.096-0.474,1.333
					C2084.347,955.518,2084.201,955.549,2084.057,955.549z"/>
				<path style="fill:#BDD0FB;" d="M2037.82,1056.152c-0.542,0-0.986-0.433-0.999-0.977c-0.013-0.552,0.424-1.011,0.976-1.023
					c34.902-0.814,71.029-27.624,71.39-27.895c0.443-0.331,1.069-0.241,1.4,0.199c0.332,0.442,0.242,1.069-0.2,1.4
					c-0.366,0.274-37.008,27.465-72.543,28.295C2037.836,1056.152,2037.828,1056.152,2037.82,1056.152z"/>
				<path style="fill:#BDD0FB;" d="M2036.842,1056.222c-0.261,0-0.522-0.102-0.718-0.304c-0.233-0.241-23.371-24.626-24.593-70.454
					c-0.015-0.552,0.421-1.012,0.973-1.026c0.584,0.016,1.012,0.421,1.026,0.974c1.201,45.005,23.802,68.879,24.03,69.115
					c0.384,0.396,0.374,1.029-0.023,1.413C2037.343,1056.128,2037.092,1056.222,2036.842,1056.222z"/>
				<path style="fill:#BDD0FB;" d="M1988.897,1182.569c-0.254,0-0.507-0.096-0.702-0.288c-0.28-0.276-28.049-28.098-32.222-68.689
					c-0.057-0.55,0.343-1.041,0.893-1.098c0.55-0.052,1.041,0.344,1.097,0.893c4.101,39.886,31.362,67.199,31.637,67.471
					c0.394,0.388,0.397,1.021,0.01,1.414C1989.414,1182.47,1989.156,1182.569,1988.897,1182.569z"/>
				<path style="fill:#BDD0FB;" d="M1991.222,1183.176c-0.747,0-1.156-0.021-1.192-0.022c-0.551-0.032-0.972-0.505-0.939-1.056
					c0.032-0.553,0.516-0.978,1.056-0.94c0.333,0.025,33.325,1.572,68.217-26.764c0.429-0.347,1.058-0.283,1.407,0.146
					c0.348,0.429,0.283,1.059-0.146,1.407C2027.86,1181.742,1997.53,1183.176,1991.222,1183.176z"/>
			</g>
			<g>
				<path style="fill:#BDD0FB;" d="M2369.994,1052.278c16.788-48.9-9.244-102.151-58.145-118.939
					c-48.9-16.788-102.151,9.244-118.939,58.144c-0.001,0.003-0.002,0.006-0.003,0.009c-9.33,27.185-29.888,49.047-56.438,60.055
					c-30.518,12.653-55.669,37.833-67.24,71.539c-11.286,32.877-37.247,58.675-70.199,69.74
					c-38.579,12.955-70.918,43.062-85.154,84.528c-24.313,70.821,13.388,147.944,84.21,172.257
					c70.821,24.314,147.943-13.388,172.257-84.209c1.3-3.787,2.423-7.592,3.372-11.406c9.297-37.351,33.583-69.212,67.126-88.091
					c24.612-13.853,44.43-36.437,54.323-65.254c4.346-12.661,6.442-25.55,6.501-38.232c0.117-25.462,12.624-49.273,33.493-63.86
					C2350.835,1087.601,2363.307,1071.755,2369.994,1052.278z"/>
				
					<linearGradient id="SVGID_00000083080752343861944310000000067195357866282923_" gradientUnits="userSpaceOnUse" x1="1970.9355" y1="1206.8922" x2="2286.2048" y2="1206.8922">
					<stop  offset="0" style="stop-color:#DAE3FE"/>
					<stop  offset="1" style="stop-color:#E9EFFD"/>
				</linearGradient>
				<path style="fill:url(#SVGID_00000083080752343861944310000000067195357866282923_);" d="M2286.072,1025.995
					c-20.683,34.236-43.65,66.947-67.532,98.963c-6.001,7.981-11.945,16.007-18.164,23.821l-9.23,11.797l-4.615,5.898l-4.732,5.806
					l-18.956,23.199l-19.414,22.818c-26.198,30.146-53.051,59.771-81.34,87.996l-10.53,10.662c-1.764,1.769-3.49,3.574-5.285,5.312
					l-5.412,5.182l-21.649,20.73c-7.127,7.008-14.663,13.573-22.057,20.295l-22.258,20.083c-0.974,0.879-2.475,0.802-3.353-0.172
					c-0.879-0.974-0.801-2.475,0.172-3.354l0.014-0.013l0.055-0.048l22.35-19.852c7.426-6.645,14.995-13.134,22.157-20.067
					l21.757-20.509l5.44-5.127c1.804-1.719,3.54-3.507,5.314-5.257l10.589-10.555c28.448-27.941,55.479-57.296,81.871-87.187
					l19.554-22.637l19.017-23.09l4.748-5.778l4.631-5.872l9.263-11.743c6.241-7.779,12.207-15.77,18.231-23.716
					c23.965-31.861,47.055-64.482,67.792-98.505l0.016-0.026c0.261-0.43,0.821-0.565,1.25-0.304
					C2286.196,1025.01,2286.334,1025.566,2286.072,1025.995z"/>
				
					<linearGradient id="SVGID_00000154423000081109970730000011206484258201871021_" gradientUnits="userSpaceOnUse" x1="2222.7981" y1="1054.9065" x2="2237.2666" y2="1054.9065">
					<stop  offset="0" style="stop-color:#DAE3FE"/>
					<stop  offset="1" style="stop-color:#E9EFFD"/>
				</linearGradient>
				<path style="fill:url(#SVGID_00000154423000081109970730000011206484258201871021_);" d="M2236.268,1098.071
					c-0.318,0-0.63-0.15-0.824-0.432c-15.971-23.134-12.343-82.45-12.181-84.964c0.036-0.551,0.51-0.952,1.063-0.934
					c0.551,0.036,0.969,0.512,0.934,1.063c-0.04,0.608-3.746,61.137,11.831,83.698c0.314,0.455,0.2,1.077-0.254,1.392
					C2236.661,1098.014,2236.463,1098.071,2236.268,1098.071z"/>
				
					<linearGradient id="SVGID_00000041266450573766812590000001236998115301001617_" gradientUnits="userSpaceOnUse" x1="2237.0061" y1="1089.7096" x2="2309.4626" y2="1089.7096">
					<stop  offset="0" style="stop-color:#DAE3FE"/>
					<stop  offset="1" style="stop-color:#E9EFFD"/>
				</linearGradient>
				<path style="fill:url(#SVGID_00000041266450573766812590000001236998115301001617_);" d="M2238.006,1098.669
					c-0.544,0-0.99-0.437-1-0.982c-0.01-0.552,0.43-1.008,0.982-1.018c0.407-0.007,41.081-0.899,70.016-15.806
					c0.492-0.257,1.094-0.061,1.347,0.431s0.06,1.094-0.431,1.347c-29.355,15.123-70.484,16.021-70.896,16.028
					C2238.018,1098.669,2238.012,1098.669,2238.006,1098.669z"/>
				
					<linearGradient id="SVGID_00000111899642517038761190000000790477427646525609_" gradientUnits="userSpaceOnUse" x1="2136.322" y1="1158.8041" x2="2149.9534" y2="1158.8041">
					<stop  offset="0" style="stop-color:#DAE3FE"/>
					<stop  offset="1" style="stop-color:#E9EFFD"/>
				</linearGradient>
				<path style="fill:url(#SVGID_00000111899642517038761190000000790477427646525609_);" d="M2148.954,1209.103
					c-0.376,0-0.736-0.213-0.906-0.576c-19.28-41.163-8.999-98.625-8.893-99.201c0.1-0.543,0.623-0.905,1.165-0.802
					c0.543,0.1,0.902,0.621,0.802,1.165c-0.105,0.569-10.268,57.413,8.738,97.99c0.234,0.5,0.019,1.095-0.481,1.329
					C2149.24,1209.072,2149.096,1209.103,2148.954,1209.103z"/>
				
					<linearGradient id="SVGID_00000012431235526363162460000011736522612914044828_" gradientUnits="userSpaceOnUse" x1="2148.4316" y1="1204.9512" x2="2244.366" y2="1204.9512">
					<stop  offset="0" style="stop-color:#DAE3FE"/>
					<stop  offset="1" style="stop-color:#E9EFFD"/>
				</linearGradient>
				<path style="fill:url(#SVGID_00000012431235526363162460000011736522612914044828_);" d="M2177.327,1213.55
					c-17.358,0-27.992-3.266-28.199-3.331c-0.526-0.168-0.816-0.73-0.649-1.256c0.167-0.527,0.732-0.817,1.256-0.65
					c0.401,0.127,40.777,12.479,93.209-11.866c0.502-0.233,1.096-0.016,1.329,0.486c0.232,0.501,0.015,1.096-0.486,1.328
					C2217.541,1210.447,2194.242,1213.55,2177.327,1213.55z"/>
				
					<linearGradient id="SVGID_00000183240375363201790550000017167750099638486181_" gradientUnits="userSpaceOnUse" x1="2030.8147" y1="1338.5146" x2="2129.1399" y2="1338.5146">
					<stop  offset="0" style="stop-color:#DAE3FE"/>
					<stop  offset="1" style="stop-color:#E9EFFD"/>
				</linearGradient>
				<path style="fill:url(#SVGID_00000183240375363201790550000017167750099638486181_);" d="M2077.811,1343.884
					c-26.637,0-46.018-6.489-46.321-6.593c-0.522-0.18-0.8-0.748-0.621-1.271c0.18-0.522,0.748-0.798,1.271-0.622
					c0.469,0.162,47.481,15.882,95.649-2.19c0.518-0.19,1.093,0.067,1.287,0.585c0.194,0.518-0.068,1.094-0.585,1.288
					C2110.699,1341.756,2093.065,1343.884,2077.811,1343.884z"/>
				
					<linearGradient id="SVGID_00000022558952939601387150000011897160784239456689_" gradientUnits="userSpaceOnUse" x1="2017.011" y1="1288.0858" x2="2031.463" y2="1288.0858">
					<stop  offset="0" style="stop-color:#DAE3FE"/>
					<stop  offset="1" style="stop-color:#E9EFFD"/>
				</linearGradient>
				<path style="fill:url(#SVGID_00000022558952939601387150000011897160784239456689_);" d="M2030.464,1336.312
					c-0.347,0-0.684-0.181-0.869-0.503c-0.214-0.374-21.265-38.055-8.45-95.168c0.121-0.538,0.659-0.875,1.194-0.757
					c0.539,0.121,0.878,0.655,0.757,1.194c-12.646,56.365,8.024,93.369,8.234,93.736c0.274,0.479,0.108,1.091-0.371,1.365
					C2030.803,1336.27,2030.632,1336.312,2030.464,1336.312z"/>
			</g>
		</g>
		<g>
			
				<linearGradient id="SVGID_00000106836969844575965440000012571454553561020600_" gradientUnits="userSpaceOnUse" x1="1239.0389" y1="1762.663" x2="1211.0388" y2="3106.6604">
				<stop  offset="0" style="stop-color:#4042E2"/>
				<stop  offset="1" style="stop-color:#4F52FF"/>
			</linearGradient>
			<path style="fill:url(#SVGID_00000106836969844575965440000012571454553561020600_);" d="M2055.774,587.793l-17.782,752.562
				l-2.761,116.524c0,15.211-12.474,27.661-27.685,27.661H511.205c-15.211,0-27.684-12.45-27.684-27.661l-1.69-116.524
				l-10.76-743.374c0-15.211,17.924-44.896,50.751-42.658l1462.395-37.85c19.091-0.476,37.564,6.856,51.085,20.353
				C2048.822,550.3,2056.226,568.725,2055.774,587.793z"/>
			
				<linearGradient id="SVGID_00000036226423203320313370000013724426162337948863_" gradientUnits="userSpaceOnUse" x1="1365.4982" y1="-239.429" x2="1289.4976" y2="624.5721">
				<stop  offset="0" style="stop-color:#4042E2"/>
				<stop  offset="1" style="stop-color:#4F52FF"/>
			</linearGradient>
			<path style="fill:url(#SVGID_00000036226423203320313370000013724426162337948863_);" d="M1998.641,1433.352
				c0,14.189-11.862,25.798-26.36,25.798H546.853c-14.498,0-26.36-11.609-26.36-25.798l-11.861-802.474
				c0-14.189,17.064-41.889,48.338-39.808l1393.087-35.312c18.19-0.461,35.779,6.398,48.66,18.976
				c12.881,12.578,19.93,29.776,19.5,47.579L1998.641,1433.352z"/>
			<path style="fill:#91B3FA;" d="M1971.425,1462.348h-159.192c-0.552,0-1-0.447-1-1s0.448-1,1-1h159.192
				c20.945,0,39.318-18.899,39.318-40.445v-489.07c0-0.553,0.448-1,1-1s1,0.447,1,1v489.07
				C2012.744,1442.514,1993.436,1462.348,1971.425,1462.348z"/>
			<path style="fill:#91B3FA;" d="M510.882,927.298c-0.552,0-1-0.447-1-1V639.307c0-14.039,5.056-27.072,14.238-36.698
				c9.299-9.749,22.042-15.118,35.884-15.118h127.717c0.552,0,1,0.447,1,1c0,0.553-0.448,1-1,1H560.004
				c-27.434,0-48.122,21.416-48.122,49.816v286.991C511.882,926.851,511.435,927.298,510.882,927.298z"/>
			<g>
				
					<linearGradient id="SVGID_00000045587451654538381080000010462931227638573480_" gradientUnits="userSpaceOnUse" x1="1286.5062" y1="776.1466" x2="672.7415" y2="1009.7035">
					<stop  offset="0" style="stop-color:#FE7062"/>
					<stop  offset="1" style="stop-color:#FF928E"/>
				</linearGradient>
				<path style="fill:url(#SVGID_00000045587451654538381080000010462931227638573480_);" d="M869.094,910.904
					c0-15.289-12.394-27.682-27.682-27.682H656.457c-15.289,0-27.682,12.394-27.682,27.682v139.611
					c0,15.289,12.394,27.682,27.682,27.682h184.954c15.289,0,27.682-12.394,27.682-27.682V910.904z"/>
				<g>
					<path style="opacity:0.8;fill:#FFFFFF;" d="M774.534,1013.45h-55.733c-5.188,0-9.408-4.221-9.408-9.408v-44.398
						c0-5.188,4.221-9.408,9.408-9.408h55.733c5.188,0,9.408,4.221,9.408,9.408v44.398
						C783.942,1009.229,779.721,1013.45,774.534,1013.45z M718.801,952.236c-4.085,0-7.408,3.323-7.408,7.408v44.398
						c0,4.085,3.323,7.408,7.408,7.408h55.733c4.085,0,7.408-3.323,7.408-7.408v-44.398c0-4.085-3.323-7.408-7.408-7.408H718.801z"
						/>
					<g>
						<path style="fill:#FFFFFF;" d="M710.393,968.106h-81.618c-0.552,0-1-0.447-1-1c0-0.553,0.448-1,1-1h81.618
							c0.552,0,1,0.447,1,1C711.393,967.659,710.945,968.106,710.393,968.106z"/>
						<path style="fill:#FFFFFF;" d="M710.393,986.244h-81.618c-0.552,0-1-0.447-1-1c0-0.553,0.448-1,1-1h81.618
							c0.552,0,1,0.447,1,1C711.393,985.797,710.945,986.244,710.393,986.244z"/>
					</g>
					<g>
						<path style="fill:#FFFFFF;" d="M869.094,968.106h-86.152c-0.552,0-1-0.447-1-1c0-0.553,0.448-1,1-1h86.152
							c0.552,0,1,0.447,1,1C870.094,967.659,869.646,968.106,869.094,968.106z"/>
						<path style="fill:#FFFFFF;" d="M869.094,986.244h-86.152c-0.552,0-1-0.447-1-1c0-0.553,0.448-1,1-1h86.152
							c0.552,0,1,0.447,1,1C870.094,985.797,869.646,986.244,869.094,986.244z"/>
					</g>
					<g>
						<g>
							<path style="fill:#FFFFFF;" d="M722.982,952.104c-0.453,0-0.863-0.31-0.972-0.77l-16.292-68.785
								c-0.127-0.537,0.205-1.076,0.743-1.203c0.534-0.131,1.076,0.204,1.204,0.742l16.292,68.785
								c0.128,0.537-0.205,1.076-0.743,1.203C723.136,952.095,723.059,952.104,722.982,952.104z"/>
							<path style="fill:#FFFFFF;" d="M767.031,952.104c-0.079,0-0.159-0.009-0.239-0.029c-0.537-0.131-0.865-0.673-0.733-1.209
								l16.895-68.785c0.132-0.537,0.673-0.875,1.209-0.732c0.537,0.131,0.865,0.673,0.733,1.209l-16.894,68.785
								C767.889,951.798,767.481,952.104,767.031,952.104z"/>
						</g>
						<g>
							<path style="fill:#FFFFFF;" d="M706.693,1080.625c-0.077,0-0.154-0.009-0.231-0.027c-0.538-0.127-0.87-0.666-0.743-1.203
								l16.292-68.786c0.127-0.538,0.665-0.87,1.204-0.742c0.538,0.127,0.87,0.666,0.743,1.203l-16.292,68.786
								C707.556,1080.315,707.146,1080.625,706.693,1080.625z"/>
							<path style="fill:#FFFFFF;" d="M783.924,1080.625c-0.45,0-0.858-0.306-0.97-0.762l-16.895-68.786
								c-0.132-0.536,0.196-1.078,0.733-1.209c0.534-0.142,1.077,0.195,1.21,0.732l16.894,68.786
								c0.132,0.536-0.196,1.078-0.733,1.209C784.083,1080.616,784.003,1080.625,783.924,1080.625z"/>
						</g>
					</g>
				</g>
			</g>
			<path style="fill:#91B3FA;" d="M871.361,700.715c0,18.156-14.718,32.874-32.874,32.874H632.176
				c-18.156,0-32.874-14.718-32.874-32.874l0,0c0-18.156,14.718-32.874,32.874-32.874h206.312
				C856.643,667.841,871.361,682.56,871.361,700.715L871.361,700.715z"/>
			<g>
				<path style="fill:#91B3FA;" d="M889.498,1194.147c0,17.351-14.065,31.416-31.416,31.416H630.718
					c-17.351,0-31.416-14.065-31.416-31.416v-0.649c0-17.351,14.065-31.416,31.416-31.416h227.365
					c17.351,0,31.416,14.065,31.416,31.416V1194.147z"/>
				<path style="fill:#91B3FA;" d="M1220.504,1194.147c0,17.351-14.065,31.416-31.416,31.416H961.723
					c-17.351,0-31.416-14.065-31.416-31.416v-0.649c0-17.351,14.065-31.416,31.416-31.416h227.365
					c17.351,0,31.416,14.065,31.416,31.416V1194.147z"/>
				<path style="fill:#91B3FA;" d="M1551.51,1194.147c0,17.351-14.065,31.416-31.416,31.416h-227.365
					c-17.351,0-31.416-14.065-31.416-31.416v-0.649c0-17.351,14.065-31.416,31.416-31.416h227.365
					c17.351,0,31.416,14.065,31.416,31.416V1194.147z"/>
				<path style="fill:#91B3FA;" d="M1882.515,1194.147c0,17.351-14.065,31.416-31.416,31.416h-227.365
					c-17.351,0-31.416-14.065-31.416-31.416v-0.649c0-17.351,14.065-31.416,31.416-31.416h227.365
					c17.351,0,31.416,14.065,31.416,31.416V1194.147z"/>
			</g>
			<g style="opacity:0.6;">
				<path style="fill:#91B3FA;" d="M1109.413,1334.387c0,13.773-11.166,24.939-24.939,24.939H660.515
					c-13.773,0-24.939-11.165-24.939-24.939l0,0c0-13.773,11.165-24.939,24.939-24.939h423.959
					C1098.248,1309.448,1109.413,1320.614,1109.413,1334.387L1109.413,1334.387z"/>
				<path style="fill:#91B3FA;" d="M1848.508,1325.318c0,13.773-11.166,24.939-24.939,24.939h-185.907
					c-13.773,0-24.939-11.165-24.939-24.939l0,0c0-13.773,11.166-24.939,24.939-24.939h185.907
					C1837.342,1300.379,1848.508,1311.545,1848.508,1325.318L1848.508,1325.318z"/>
			</g>
		</g>
		<g>
			<g>
				
					<linearGradient id="SVGID_00000119096911789165738880000013767317010595994002_" gradientUnits="userSpaceOnUse" x1="734.0982" y1="359.7496" x2="676.7653" y2="502.4151">
					<stop  offset="0" style="stop-color:#4042E2"/>
					<stop  offset="1" style="stop-color:#4F52FF"/>
				</linearGradient>
				<path style="fill:url(#SVGID_00000119096911789165738880000013767317010595994002_);" d="M776.633,360.788
					c0.023-0.665,0.044-1.276,0.061-1.806c0.047-1.494-0.558-2.924-1.671-3.923c-6.517-5.852-30.925-25.924-65.42-32.177
					c-1.859-0.337-3.471,0.503-4.376,1.83c2.875,0.349,6.729,1.082,11.921,2.446C734.198,331.637,758.989,343.555,776.633,360.788z"
					/>
				
					<linearGradient id="SVGID_00000092439003514833867610000005754659716903908482_" gradientUnits="userSpaceOnUse" x1="793.4025" y1="257.1868" x2="769.4024" y2="300.5203">
					<stop  offset="0" style="stop-color:#09005D"/>
					<stop  offset="1" style="stop-color:#1A0F91"/>
				</linearGradient>
				<path style="fill:url(#SVGID_00000092439003514833867610000005754659716903908482_);" d="M717.148,327.158
					c-5.192-1.364-9.046-2.097-11.921-2.446c-0.911,1.335-1.105,3.163-0.111,4.784c0.559,0.912,1.247,1.898,2.093,2.957
					c5.398,6.759,49.028,51.523,49.028,51.523s13.851,1.69,18.085-0.764c1.372-0.795,2.053-15.173,2.311-22.424
					C758.989,343.555,734.198,331.637,717.148,327.158z"/>
			</g>
			
				<linearGradient id="SVGID_00000096758128558714192240000000931304737491853959_" gradientUnits="userSpaceOnUse" x1="1141.6417" y1="-704.6088" x2="1118.9751" y2="-638.6086">
				<stop  offset="0" style="stop-color:#FF928E"/>
				<stop  offset="1" style="stop-color:#FEB3B1"/>
			</linearGradient>
			<path style="fill:url(#SVGID_00000096758128558714192240000000931304737491853959_);" d="M774.973,407.283v-26.662
				c0-2.258-1.434-4.286-3.584-4.976c-3.309-1.062-8.396-2.056-13.022-0.322c-2.714,1.017-4.539,3.592-4.769,6.481l-1.987,24.901
				L774.973,407.283z"/>
			<g>
				
					<linearGradient id="SVGID_00000126325936885277216870000003144888564190303420_" gradientUnits="userSpaceOnUse" x1="617.0524" y1="283.2963" x2="623.0524" y2="339.9631">
					<stop  offset="0" style="stop-color:#09005D"/>
					<stop  offset="1" style="stop-color:#1A0F91"/>
				</linearGradient>
				<path style="fill:url(#SVGID_00000126325936885277216870000003144888564190303420_);" d="M669.233,383.674
					c-0.319-1.05-0.935-1.928-1.724-2.585c-5.595,1.105-17.251,4.188-41.13,12.62c-27.683,9.774-35.786,18.309-38.121,22.874
					c11.862,3.473,38.819,8.783,77.49,1.225l7.64-3.582C673.389,414.226,672.853,395.595,669.233,383.674z"/>
				
					<linearGradient id="SVGID_00000140008743839522971720000000763721994170177681_" gradientUnits="userSpaceOnUse" x1="652.9836" y1="438.9899" x2="758.9829" y2="602.3224">
					<stop  offset="0" style="stop-color:#4042E2"/>
					<stop  offset="1" style="stop-color:#4F52FF"/>
				</linearGradient>
				<path style="fill:url(#SVGID_00000140008743839522971720000000763721994170177681_);" d="M626.379,393.709
					c23.879-8.431,35.534-11.515,41.13-12.62c-1.231-1.023-2.892-1.496-4.567-1.147c-13.748,2.861-55.29,12.64-77,30.24
					c-2.167,1.757-1.533,5.225,1.134,6.046c0.375,0.115,0.772,0.234,1.183,0.355C590.594,412.019,598.696,403.484,626.379,393.709z"
					/>
			</g>
			
				<linearGradient id="SVGID_00000009548492332245025810000008006832028167980970_" gradientUnits="userSpaceOnUse" x1="1067.3091" y1="-730.14" x2="1044.6423" y2="-664.1398">
				<stop  offset="0" style="stop-color:#FF928E"/>
				<stop  offset="1" style="stop-color:#FEB3B1"/>
			</linearGradient>
			<path style="fill:url(#SVGID_00000009548492332245025810000008006832028167980970_);" d="M687.697,430.329l-16.271-19.498
				c-1.584-1.898-4.161-2.649-6.51-1.878c-2.604,0.855-6.065,2.62-9.413,6.261c-1.562,1.698-1.869,4.214-0.811,6.264l11.837,22.938
				L687.697,430.329z"/>
			
				<linearGradient id="SVGID_00000021077837103185959170000009704810071570411698_" gradientUnits="userSpaceOnUse" x1="798.1344" y1="294.5541" x2="745.5582" y2="590.1724">
				<stop  offset="0" style="stop-color:#09005D"/>
				<stop  offset="1" style="stop-color:#1A0F91"/>
			</linearGradient>
			<path style="fill:url(#SVGID_00000021077837103185959170000009704810071570411698_);" d="M748.046,398c0,0,19.855-3.812,30.872,0
				c0,0,14.521,87.147,12.025,115.168l-42.898,8.719C748.046,521.888,746.827,423.7,748.046,398z"/>
			
				<linearGradient id="SVGID_00000054261204279970313710000008278964988256029612_" gradientUnits="userSpaceOnUse" x1="856.6785" y1="333.4481" x2="804.6783" y2="466.1152">
				<stop  offset="0" style="stop-color:#09005D"/>
				<stop  offset="1" style="stop-color:#1A0F91"/>
			</linearGradient>
			<path style="fill:url(#SVGID_00000054261204279970313710000008278964988256029612_);" d="M924.105,550.691
				c0,0-140.281,7.876-197.216,3.948c-5.577-0.385-10.524-3.685-13.022-8.686c-12.203-24.429-48.799-97.736-52.009-104.732
				c0,0,14.864-12.419,25.839-14.134c0,0,51.956,57.801,54.129,87.29c0,0,120.319-34.605,132.203-34.277
				c11.883,0.328,48.326,16.588,48.326,16.588L924.105,550.691z"/>
			
				<linearGradient id="SVGID_00000022547918570069544680000008422683473885428357_" gradientUnits="userSpaceOnUse" x1="1168.3496" y1="342.4945" x2="1054.3497" y2="544.4941">
				<stop  offset="0" style="stop-color:#FF928E"/>
				<stop  offset="1" style="stop-color:#FEB3B1"/>
			</linearGradient>
			<path style="fill:url(#SVGID_00000022547918570069544680000008422683473885428357_);" d="M1111.102,441.349
				c0,0-5.148-10.7-0.683-16.348c4.464-5.648,20.558-23.126,20.558-23.126l1.871-12.079l6.613,19.676l-14.193,29.683
				C1125.268,439.154,1116.959,448.142,1111.102,441.349z"/>
			
				<linearGradient id="SVGID_00000077294465032614439190000015650044652550794908_" gradientUnits="userSpaceOnUse" x1="1191.5653" y1="355.5963" x2="1077.5652" y2="557.5964">
				<stop  offset="0" style="stop-color:#FF928E"/>
				<stop  offset="1" style="stop-color:#FEB3B1"/>
			</linearGradient>
			<path style="fill:url(#SVGID_00000077294465032614439190000015650044652550794908_);" d="M1147.145,491.128
				c-5.198-18.266-12.352-35.653-21.878-51.973l-14.166,2.195l6.99,49.109C1123.439,492.075,1138.026,495.762,1147.145,491.128z"/>
			
				<linearGradient id="SVGID_00000120517737509620261300000011151712412617890970_" gradientUnits="userSpaceOnUse" x1="1170.111" y1="405.116" x2="868.62" y2="652.164">
				<stop  offset="0" style="stop-color:#FE7062"/>
				<stop  offset="1" style="stop-color:#FF928E"/>
			</linearGradient>
			<path style="fill:url(#SVGID_00000120517737509620261300000011151712412617890970_);" d="M1156.319,538.945
				c-1.812-16.5-4.805-32.468-9.174-47.818c-9.119,4.635-23.706,0.947-29.053-0.669l2.007,14.101l-5.37-18.99
				c-6.531-23.098-20.422-43.433-39.563-57.917l-13.332-10.088c-13.1-9.912-34.047-6.488-47.412,3.064
				c-29.674,21.209-73.722,56.766-88.761,68.997c-3.233,2.63-7.663,3.217-11.474,1.53l-2.509-1.111
				c-2.372-1.05-4.989,0.869-4.701,3.446l6.385,58.377l101.938-1.177c12.223,0,47.631-1.26,53.264-12.107l9.426-23.137
				c22.09,18.786,50.424,31.692,65.606,35.453C1150.594,552.634,1157.151,546.525,1156.319,538.945z"/>
			
				<linearGradient id="SVGID_00000029029552214343172300000009085567932649268356_" gradientUnits="userSpaceOnUse" x1="1104.7615" y1="339.3503" x2="1063.7616" y2="451.3504">
				<stop  offset="0" style="stop-color:#FF928E"/>
				<stop  offset="1" style="stop-color:#FEB3B1"/>
			</linearGradient>
			<path style="fill:url(#SVGID_00000029029552214343172300000009085567932649268356_);" d="M1084.724,386.249l-31.337,30.442
				c-2.089,2.03-2.285,5.342-0.413,7.573c9.666,11.517,17.961,17.557,24.858,18.011c2.926,0.193,5.696-1.352,7.266-3.828
				l16.657-26.264L1084.724,386.249z"/>
			
				<linearGradient id="SVGID_00000171714773518850758560000000589942918335590530_" gradientUnits="userSpaceOnUse" x1="1556.7898" y1="-562.0299" x2="1534.123" y2="-496.0299">
				<stop  offset="0" style="stop-color:#FF928E"/>
				<stop  offset="1" style="stop-color:#FEB3B1"/>
			</linearGradient>
			<polygon style="fill:url(#SVGID_00000171714773518850758560000000589942918335590530_);" points="1147.974,536.252 
				1174.932,525.761 1206.272,550.691 1150.152,550.901 			"/>
			<g>
				
					<linearGradient id="SVGID_00000100345870940939066360000007551648509562164359_" gradientUnits="userSpaceOnUse" x1="1448.825" y1="-599.1108" x2="1426.1582" y2="-533.1105">
					<stop  offset="0" style="stop-color:#FF928E"/>
					<stop  offset="1" style="stop-color:#FEB3B1"/>
				</linearGradient>
				<path style="fill:url(#SVGID_00000100345870940939066360000007551648509562164359_);" d="M1137.271,379.21
					c0,0-4.276,30.07-15.827,39.317c-11.551,9.247-34.056,2.285-41.657-20.384l15.146-38.759L1137.271,379.21z"/>
				
					<linearGradient id="SVGID_00000098940913286973483740000004657607546482550706_" gradientUnits="userSpaceOnUse" x1="1099.2191" y1="302.9445" x2="1115.8306" y2="397.6915">
					<stop  offset="0" style="stop-color:#09005D"/>
					<stop  offset="1" style="stop-color:#1A0F91"/>
				</linearGradient>
				<path style="fill:url(#SVGID_00000098940913286973483740000004657607546482550706_);" d="M1093.226,384.465
					c0.879,0.283,1.798-0.28,1.936-1.193c0.417-2.776,1.458-8.269,3.565-12.011c0,0-1.102-3.945,9.97,2.015
					c11.072,5.959,27.703,14.714,37.494,9.501c9.546-5.083,19.216-30.662-6.013-25.923c-0.96,0.18-1.842-0.585-1.771-1.559
					c0.31-4.204-0.107-13.876-9.901-16.981c-9.165-2.905-14.183,1.233-16.25,3.73c-0.608,0.734-1.738,0.72-2.318-0.037
					c-2.746-3.584-10.202-11.214-21.179-6.377c-9.041,3.984-10.447,9.553-10.298,13.024c0.048,1.124-1.093,1.886-2.115,1.415
					c-2.769-1.276-7.223-1.938-11.489,3.408c-5.898,7.39,2.53,13.799,5.059,15.479c0.414,0.275,0.672,0.732,0.675,1.229
					c0.024,3.844,0.622,20.608,9.024,30.064c0.728,0.819,2.072,0.579,2.496-0.431l6.469-15.414c0.301-0.716,1.099-1.083,1.838-0.845
					L1093.226,384.465z"/>
				
					<linearGradient id="SVGID_00000169552086268482387780000003266174393354130844_" gradientUnits="userSpaceOnUse" x1="1428.0193" y1="-606.2568" x2="1405.3525" y2="-540.2567">
					<stop  offset="0" style="stop-color:#FF928E"/>
					<stop  offset="1" style="stop-color:#FEB3B1"/>
				</linearGradient>
				<path style="fill:url(#SVGID_00000169552086268482387780000003266174393354130844_);" d="M1093.362,387.595
					c0,0-3.95-16.091-9.952-10.866c-6.001,5.224,1.564,16.722,8.439,18.914L1093.362,387.595z"/>
			</g>
			
				<linearGradient id="SVGID_00000158744632422799757240000003641143757718466485_" gradientUnits="userSpaceOnUse" x1="1150.17" y1="395.3769" x2="859.0158" y2="633.9548">
				<stop  offset="0" style="stop-color:#FE7062"/>
				<stop  offset="1" style="stop-color:#FF928E"/>
			</linearGradient>
			<path style="fill:url(#SVGID_00000158744632422799757240000003641143757718466485_);" d="M1048.231,455.469
				c0,0,1.208-37.226-14.084-37.974c-18.99-0.929-49.514,12.834-31.344,67.393c10.039,30.143,25.168,52.509,66.702,61.985
				c2.021-15.275,8.944-25.919,14.063-31.922C1066.646,503.027,1052.31,484.447,1048.231,455.469z"/>
			
				<linearGradient id="SVGID_00000025437332220660171820000003823262105549146554_" gradientUnits="userSpaceOnUse" x1="1117.2712" y1="-134.0616" x2="1072.267" y2="264.9785">
				<stop  offset="0" style="stop-color:#E1473D"/>
				<stop  offset="1" style="stop-color:#E9605A"/>
			</linearGradient>
			<path style="fill:url(#SVGID_00000025437332220660171820000003823262105549146554_);" d="M1081.662,515.057
				c-0.296,0-0.595-0.089-0.855-0.272c-19.486-13.731-30.305-32.514-34.049-59.108c-0.012-0.084-0.016-0.17-0.014-0.256
				c0.32-9.949-1.333-35.886-12.67-36.441c-5.481-0.263-11.232,0.766-16.193,2.914c-0.755,0.325-1.63-0.02-1.957-0.775
				c-0.326-0.754,0.02-1.63,0.775-1.957c5.37-2.325,11.592-3.434,17.52-3.155c16.245,0.795,15.583,36.512,15.503,39.379
				c3.637,25.658,14.062,43.763,32.798,56.966c0.672,0.474,0.833,1.402,0.359,2.074
				C1082.591,514.838,1082.13,515.057,1081.662,515.057z"/>
			
				<linearGradient id="SVGID_00000057117784500698357270000009391241234310160302_" gradientUnits="userSpaceOnUse" x1="1099.9712" y1="-136.0129" x2="1054.9669" y2="263.027">
				<stop  offset="0" style="stop-color:#E1473D"/>
				<stop  offset="1" style="stop-color:#E9605A"/>
			</linearGradient>
			<path style="fill:url(#SVGID_00000057117784500698357270000009391241234310160302_);" d="M1056.285,544.62
				c-0.161,0-0.325-0.026-0.485-0.081c-34.456-11.891-46.513-35.471-54.409-59.179c-1.788-5.371-3.168-10.544-4.103-15.378
				c-0.156-0.807,0.371-1.587,1.178-1.743c0.809-0.157,1.588,0.372,1.744,1.179c0.91,4.707,2.258,9.753,4.005,15.001
				c7.655,22.986,19.321,45.837,52.556,57.307c0.777,0.269,1.19,1.115,0.922,1.892
				C1057.479,544.233,1056.903,544.62,1056.285,544.62z"/>
			
				<linearGradient id="SVGID_00000160903406454005332520000003936082695252900266_" gradientUnits="userSpaceOnUse" x1="1500.0695" y1="-581.5097" x2="1477.4028" y2="-515.5098">
				<stop  offset="0" style="stop-color:#FF928E"/>
				<stop  offset="1" style="stop-color:#FEB3B1"/>
			</linearGradient>
			<path style="fill:url(#SVGID_00000160903406454005332520000003936082695252900266_);" d="M1155.604,550.692l-0.064-14.439
				c0,0-40.471,0.896-71.972-21.302c-5.118,6.003-12.041,16.647-14.063,31.922C1090.523,551.667,1118.294,553.165,1155.604,550.692z
				"/>
			<g>
				
					<linearGradient id="SVGID_00000129913244225215980080000017769835958022593724_" gradientUnits="userSpaceOnUse" x1="1167.1367" y1="487.9368" x2="1170.1368" y2="637.9375">
					<stop  offset="0" style="stop-color:#09005D"/>
					<stop  offset="1" style="stop-color:#1A0F91"/>
				</linearGradient>
				<path style="fill:url(#SVGID_00000129913244225215980080000017769835958022593724_);" d="M1103.725,555.73
					c0.098,0.005,0.197,0.008,0.296,0.007l128.723-0.14c3.182-0.003,5.759-2.585,5.755-5.767c-0.003-3.183-2.595-5.813-5.768-5.756
					l-128.723,0.141c-3.182,0.003-5.759,2.585-5.756,5.767C1098.256,553.064,1100.68,555.579,1103.725,555.73z"/>
				
					<linearGradient id="SVGID_00000023987001111169880380000002081162872381516954_" gradientUnits="userSpaceOnUse" x1="1330.9188" y1="562.5135" x2="1242.9189" y2="478.5135">
					<stop  offset="0" style="stop-color:#09005D"/>
					<stop  offset="1" style="stop-color:#1A0F91"/>
				</linearGradient>
				<path style="fill:url(#SVGID_00000023987001111169880380000002081162872381516954_);" d="M1348.461,438.857h-107.202
					c-7.908,0-15.106,4.564-18.48,11.717l-49.559,105.087h133.223c5.096,0,9.675-3.114,11.548-7.854l38.431-97.243
					C1358.643,444.946,1354.502,438.857,1348.461,438.857z"/>
				<path style="fill:#7D97F4;" d="M1272.936,492.739c-2.323,7.218-0.607,14.227,3.833,15.656c4.44,1.429,9.923-3.263,12.246-10.481
					c2.323-7.217,0.607-14.227-3.833-15.656C1280.742,480.829,1275.259,485.521,1272.936,492.739z"/>
			</g>
		</g>
		<path style="fill:#BDD0FB;" d="M1782.964,258.531c-30.257-26.496-69.579-41.399-107.631-52.522
			c-45.203-13.213-92.063-25.282-139.354-27.365c-87.328-3.845-164.077,46.171-206.607,116.667
			c-8.383,13.896-14.544,28.89-20.018,44.126c-5.108,14.217-12.675,29.549-14.107,44.669c-0.588,6.203-1.518,12.384-1.74,18.619
			c-0.066,1.851-0.271,18.465,5.073,12.378c77.588-88.378,163.417-64.791,232.205,11.302c21.713,24.019,65.845,41.49,97.607,41.752
			c35.05,0.289,70.095-13.817,101.162-28.79c30.862-14.875,65.26-34.192,83.259-64.601
			C1836.428,334.867,1814.934,286.529,1782.964,258.531z"/>
		<g>
			<g>
				<g>
					<g>
						<g>
							<path style="fill:#7D97F4;" d="M1541.402,266.554l-7.398-27.337l-21.576-11.755l-2.876,5.262l19.311,10.424l23.014,84.381
								l0.711,2.507h93.895c9.145,0,17.564-4.489,22.527-12.173l4.21-5.557c4.53-7.019,7.518-15.089,7.518-23.445v-22.306H1541.402z
								 M1673.937,288.859c0,7.19-2.266,14.186-6.17,20.223l-3.723,6.257c-3.842,5.953-10.472,10.161-17.561,10.161h-89.287
								l-4.886-18.036l-9.261-34.108h130.888V288.859z"/>
						</g>
						<g>
							<path style="fill:#7D97F4;" d="M1668.082,360.645c0,1.662-1.353,3.397-3.022,3.397h-110.168c-1.67,0-3.382-2.608-3.382-4.27
								v-51.949c0-0.572,0.339-0.453,0.617-0.91l5.069,18.587h1.115v31.74h106.749
								C1666.729,357.24,1668.082,358.975,1668.082,360.645z"/>
						</g>
					</g>
					<g>
						<rect x="1606.92" y="269.573" style="fill:#7D97F4;" width="4.022" height="56.55"/>
						<g>
							<rect x="1571.398" y="269.573" style="fill:#7D97F4;" width="4.021" height="56.55"/>
							<rect x="1641.604" y="269.573" style="fill:#7D97F4;" width="4.022" height="56.55"/>
						</g>
					</g>
					<g>
						<rect x="1544.577" y="286.208" style="fill:#7D97F4;" width="130.8" height="3.596"/>
						<rect x="1550.286" y="305.893" style="fill:#7D97F4;" width="121.814" height="3.596"/>
					</g>
				</g>
				<path style="fill:#7D97F4;" d="M1569.002,367.922c-7.174,0-12.99,5.816-12.99,12.99c0,7.174,5.815,12.99,12.99,12.99
					c7.174,0,12.99-5.816,12.99-12.99C1581.992,373.738,1576.176,367.922,1569.002,367.922z M1569.002,388.752
					c-4.33,0-7.84-3.51-7.84-7.84c0-4.33,3.51-7.84,7.84-7.84c4.33,0,7.84,3.51,7.84,7.84
					C1576.843,385.242,1573.333,388.752,1569.002,388.752z"/>
				<path style="fill:#7D97F4;" d="M1649.723,367.922c-7.174,0-12.99,5.816-12.99,12.99c0,7.174,5.816,12.99,12.99,12.99
					c7.174,0,12.99-5.816,12.99-12.99C1662.713,373.738,1656.897,367.922,1649.723,367.922z M1649.723,388.752
					c-4.33,0-7.84-3.51-7.84-7.84c0-4.33,3.51-7.84,7.84-7.84c4.33,0,7.84,3.51,7.84,7.84
					C1657.563,385.242,1654.053,388.752,1649.723,388.752z"/>
			</g>
			<path style="fill:#7D97F4;" d="M1525.811,232.702c0,3.37-2.732,6.103-6.103,6.103h-20.307c-3.37,0-6.103-2.732-6.103-6.103l0,0
				c0-3.371,2.732-6.103,6.103-6.103h20.307C1523.079,226.6,1525.811,229.332,1525.811,232.702L1525.811,232.702z"/>
		</g>
		<path style="fill:#7D97F4;" d="M1293.485,152.977c-0.469,0-0.888-0.331-0.98-0.809c-0.105-0.542,0.249-1.067,0.791-1.173
			c0,0,2.044-0.398,5.919-1.07c0.544-0.092,1.062,0.27,1.156,0.814c0.094,0.544-0.271,1.061-0.814,1.156
			c-3.843,0.667-5.873,1.062-5.879,1.063C1293.612,152.971,1293.548,152.977,1293.485,152.977z"/>
		<path style="fill:#7D97F4;" d="M481.831,1341.355c-0.355,0-0.699-0.189-0.88-0.523c-0.961-1.774-1.907-3.54-2.839-5.297
			c-0.258-0.488-0.073-1.094,0.416-1.353c0.489-0.26,1.093-0.073,1.352,0.415c0.929,1.753,1.872,3.513,2.83,5.281
			c0.263,0.486,0.082,1.093-0.403,1.355C482.155,1341.316,481.992,1341.355,481.831,1341.355z"/>
		<g>
			<g>
				<g>
					
						<linearGradient id="SVGID_00000152246176074047511070000013445592181258611865_" gradientUnits="userSpaceOnUse" x1="8867.2598" y1="731.6971" x2="8873.2598" y2="847.0305" gradientTransform="matrix(-1 0 0 1 11020.6602 0)">
						<stop  offset="0" style="stop-color:#09005D"/>
						<stop  offset="1" style="stop-color:#1A0F91"/>
					</linearGradient>
					<path style="fill:url(#SVGID_00000152246176074047511070000013445592181258611865_);" d="M2128.586,1499.211
						c0,0,5.165,8.142,6.465,30.937c0.121,2.124-1.561,3.933-3.688,3.933h-40.397c-1.625,0-2.785-1.594-2.265-3.133
						c2.367-7.006,9.525-24.088,25.495-33.849L2128.586,1499.211z"/>
					
						<linearGradient id="SVGID_00000083083110125284767470000004100306807227389350_" gradientUnits="userSpaceOnUse" x1="8352.5234" y1="3085.8389" x2="8329.8564" y2="3151.8389" gradientTransform="matrix(-1 0 0 1 11020.6602 0)">
						<stop  offset="0" style="stop-color:#FF928E"/>
						<stop  offset="1" style="stop-color:#FEB3B1"/>
					</linearGradient>
					<path style="fill:url(#SVGID_00000083083110125284767470000004100306807227389350_);" d="M2130.342,1483.765l-2.285,19.159
						c-0.197,1.653-1.493,2.976-3.146,3.167c-2.209,0.254-5.421,0.434-8.542-0.081c-2.837-0.468-4.879-2.995-4.879-5.87v-18.498
						L2130.342,1483.765z"/>
					
						<linearGradient id="SVGID_00000140732705292888748780000011747466389010796725_" gradientUnits="userSpaceOnUse" x1="8979.2148" y1="725.8771" x2="8985.2148" y2="841.21" gradientTransform="matrix(-1 0 0 1 11020.6602 0)">
						<stop  offset="0" style="stop-color:#09005D"/>
						<stop  offset="1" style="stop-color:#1A0F91"/>
					</linearGradient>
					<path style="fill:url(#SVGID_00000140732705292888748780000011747466389010796725_);" d="M2028.636,1497.099
						c0,0,7.732,12.018,7.567,28.515c-0.039,3.886-3.292,6.981-7.178,6.981h-62.741c-2.938,0-4.13-3.775-1.726-5.464
						c11.872-8.337,35.207-23.911,52.085-30.033H2028.636z"/>
					
						<linearGradient id="SVGID_00000127029922536267628660000001705707835521365419_" gradientUnits="userSpaceOnUse" x1="8436.0313" y1="3114.5159" x2="8413.3643" y2="3180.5159" gradientTransform="matrix(-1 0 0 1 11020.6602 0)">
						<stop  offset="0" style="stop-color:#FF928E"/>
						<stop  offset="1" style="stop-color:#FEB3B1"/>
					</linearGradient>
					<path style="fill:url(#SVGID_00000127029922536267628660000001705707835521365419_);" d="M2035.098,1476.408l-4.874,23.661
						c-0.545,2.646-3.134,4.426-5.771,3.837c-1.604-0.358-3.495-1.043-5.516-2.307c-1.921-1.201-2.894-3.486-2.502-5.717
						l5.041-28.666L2035.098,1476.408z"/>
					
						<linearGradient id="SVGID_00000015356673304998009020000012350331951163017108_" gradientUnits="userSpaceOnUse" x1="2266.3821" y1="921.4666" x2="2182.3862" y2="1114.957">
						<stop  offset="0" style="stop-color:#09005D"/>
						<stop  offset="1" style="stop-color:#1A0F91"/>
					</linearGradient>
					<path style="fill:url(#SVGID_00000015356673304998009020000012350331951163017108_);" d="M2121.39,1147.429
						c0,0,16.946,14.94,20.135,32.914c3.189,17.974-9.035,310.114-9.035,310.114s-16.945,2.819-25.68-2.474
						c0,0-10.36-189.597-18.235-233.408c0,0-41.298,196.398-52.741,231.884c0,0-16.325,1.986-21.589-1.12
						c0,0,10.818-254.586,24.411-299.848L2121.39,1147.429z"/>
					
						<linearGradient id="SVGID_00000054967589785954093400000016125682848919642558_" gradientUnits="userSpaceOnUse" x1="2088.3169" y1="1227.7798" x2="2112.5654" y2="1227.7798">
						<stop  offset="0" style="stop-color:#020039"/>
						<stop  offset="1" style="stop-color:#090056"/>
					</linearGradient>
					<path style="fill:url(#SVGID_00000054967589785954093400000016125682848919642558_);" d="M2089.067,1247.323
						c-0.063,0-0.126-0.008-0.189-0.024c-0.401-0.104-0.641-0.514-0.537-0.915l7.198-27.611c0.047-0.183,0.162-0.34,0.321-0.441
						l15.551-9.976c0.348-0.224,0.812-0.123,1.036,0.226c0.224,0.349,0.122,0.813-0.227,1.036l-15.304,9.817l-7.124,27.328
						C2089.705,1247.1,2089.4,1247.323,2089.067,1247.323z"/>
					
						<linearGradient id="SVGID_00000181078917013712957090000008761631513307389873_" gradientUnits="userSpaceOnUse" x1="1944.4188" y1="916.1927" x2="2023.9149" y2="1193.6787">
						<stop  offset="0" style="stop-color:#FE7062"/>
						<stop  offset="1" style="stop-color:#FF928E"/>
					</linearGradient>
					<path style="fill:url(#SVGID_00000181078917013712957090000008761631513307389873_);" d="M1954.167,978.625
						c71.335-5.922,89.98,8.84,89.98,8.84l-34.281,54.12c0,0-70.094-1.385-120.318-40.096c9.399-10.123,15.928-21.31,20.115-30.021
						C1922.612,976.851,1937.527,980.006,1954.167,978.625z"/>
					
						<linearGradient id="SVGID_00000016776990315351338080000014776875365771434654_" gradientUnits="userSpaceOnUse" x1="2298.4348" y1="-307.3206" x2="2275.7681" y2="-241.3207">
						<stop  offset="0" style="stop-color:#FF928E"/>
						<stop  offset="1" style="stop-color:#FEB3B1"/>
					</linearGradient>
					<path style="fill:url(#SVGID_00000016776990315351338080000014776875365771434654_);" d="M1842.457,873.915
						c0.096-2.286,3.194-2.908,4.165-0.836l9.103,19.423c1.758,3.753,2.322,7.956,1.615,12.039l-3.193,11.305
						c-0.955,5.513,0.485,11.162,3.98,15.532c8.364,10.456,26.176,29.552,51.534,40.089c-4.187,8.711-10.715,19.898-20.115,30.021
						c-18.429-14.203-34.186-33.426-42.819-59.458c-4.136-1.271-6.9-5.165-6.736-9.489L1842.457,873.915z"/>
					
						<linearGradient id="SVGID_00000158005187520505571000000015063266101669327018_" gradientUnits="userSpaceOnUse" x1="2201.0881" y1="774.4719" x2="2132.0916" y2="889.966">
						<stop  offset="0" style="stop-color:#FE7062"/>
						<stop  offset="1" style="stop-color:#FF928E"/>
					</linearGradient>
					<path style="fill:url(#SVGID_00000158005187520505571000000015063266101669327018_);" d="M1930.686,1010.002
						c25.112-27.06,72.946-39.285,100.641-44.307c12.133-2.2,24.093,4.551,28.392,16.108
						c12.463,33.503,46.359,120.664,52.928,135.644c5.39,12.29,11.019,24.293,14.594,31.797c2.136,4.483,0.27,9.848-4.204,12.004
						c-23.301,11.231-65.227,23.938-82.225,28.895c-3.739,1.091-7.462-1.717-7.462-5.611c0-3.303-0.898-6.544-2.598-9.376
						l-64.374-107.274c-40.124,44.488-75.261,48.557-102.254,38.819c4.538-14.027,7.508-28.08,8.933-42.16
						C1912.936,1057.71,1930.686,1010.002,1930.686,1010.002z"/>
					
						<linearGradient id="SVGID_00000168096159949151473080000011859741315935344537_" gradientUnits="userSpaceOnUse" x1="5972.9419" y1="6055.2349" x2="6296.9741" y2="5551.1841" gradientTransform="matrix(-1 0 0 1 11020.6602 0)">
						<stop  offset="0" style="stop-color:#FF928E"/>
						<stop  offset="1" style="stop-color:#FEB3B1"/>
					</linearGradient>
					<path style="fill:url(#SVGID_00000168096159949151473080000011859741315935344537_);" d="M1795.921,1049.206l13.036-7.621
						c23.298,16,48.159,25.687,64.101,22.956c-1.425,14.079-4.395,28.132-8.933,42.16
						C1828.565,1093.873,1795.921,1049.206,1795.921,1049.206z"/>
					
						<linearGradient id="SVGID_00000067919642371958174890000000765072712780348566_" gradientUnits="userSpaceOnUse" x1="6010.166" y1="6079.167" x2="6334.1987" y2="5575.1157" gradientTransform="matrix(-1 0 0 1 11020.6602 0)">
						<stop  offset="0" style="stop-color:#FF928E"/>
						<stop  offset="1" style="stop-color:#FEB3B1"/>
					</linearGradient>
					<path style="fill:url(#SVGID_00000067919642371958174890000000765072712780348566_);" d="M1734.008,1051.949
						c8.107-4.412,32.163-8.207,32.163-8.207s27.651-16.177,35.611-19.362c6.611-2.645,9.457,7.243,10.231,10.67
						c0.158,0.699,0.23,1.129,0.23,1.129l-1.023,6.576l-27.934,12.415c-5.979,2.657-12.577,3.615-19.065,2.765l-29.826-3.902
						c-0.479-0.063-0.863-0.427-0.951-0.902C1733.356,1052.657,1733.584,1052.18,1734.008,1051.949z"/>
					
						<linearGradient id="SVGID_00000060724655019656885700000014922712235276090241_" gradientUnits="userSpaceOnUse" x1="8308.75" y1="3070.802" x2="8286.084" y2="3136.802" gradientTransform="matrix(-1 0 0 1 11020.6602 0)">
						<stop  offset="0" style="stop-color:#FF928E"/>
						<stop  offset="1" style="stop-color:#FEB3B1"/>
					</linearGradient>
					<path style="fill:url(#SVGID_00000060724655019656885700000014922712235276090241_);" d="M1993.234,915.998l21.392,52.2
						c0,0-24.579,17.013-44.354,15.393l-10.676-46.938L1993.234,915.998z"/>
					<g>
						
							<linearGradient id="SVGID_00000174562002142504373210000017868457909135938945_" gradientUnits="userSpaceOnUse" x1="2376.804" y1="-280.413" x2="2354.1375" y2="-214.4133">
							<stop  offset="0" style="stop-color:#FF928E"/>
							<stop  offset="1" style="stop-color:#FEB3B1"/>
						</linearGradient>
						<path style="fill:url(#SVGID_00000174562002142504373210000017868457909135938945_);" d="M1957.098,880.411
							c-0.49,0.694-15.475,54.831-15.475,54.831l31.093,7.899l21.826-49.201C1994.543,893.942,1965.301,868.791,1957.098,880.411z"
							/>
						
							<linearGradient id="SVGID_00000111897388764685970800000005782163500690050712_" gradientUnits="userSpaceOnUse" x1="6957.0205" y1="8468.4102" x2="7033.9951" y2="8468.4102" gradientTransform="matrix(-0.817 -0.5767 -0.5767 0.817 12563.1816 -1973.3862)">
							<stop  offset="0" style="stop-color:#09005D"/>
							<stop  offset="1" style="stop-color:#1A0F91"/>
						</linearGradient>
						<path style="fill:url(#SVGID_00000111897388764685970800000005782163500690050712_);" d="M1982.834,901.417l-9.462,26.8
							c-0.122,0.344-0.284,0.661-0.494,0.96c-1.284,1.824-6.162,7.776-11.948,2.415c-5.25-4.865-10.114-9.227-14.605-10.02
							c-2.017-0.355-3.97,0.875-4.516,2.849c-1.36,4.919-4.221,16.06-5.229,26.119c-0.204,2.041,1.205,3.886,3.22,4.269
							c6.073,1.153,18.949,3.227,29.698,2.469c1.457-0.103,2.739-0.977,3.346-2.304c2.962-6.473,12.039-26.114,15.415-31.196
							c3.169-4.77,10.936-4.636,14.194-4.347c1.068,0.094,2.118-0.249,2.924-0.956c2.85-2.498,8.274-8.876,0.644-16.511
							c-1.597-1.598-1.554-4.176,0.092-5.723c3.276-3.081,6.781-8.544,1.322-15.321c-5.548-6.888-12.873-5.791-17.36-4.154
							c-1.814,0.662-3.794-0.105-4.78-1.766c-0.562-0.945-1.541-1.661-3.24-1.515c-2.289,0.197-4.213-1.713-4.172-4.01
							c0.08-4.413-1.5-9.988-9.155-12.37c-13.583-4.228-22.053,8.894-22.892,18.686c-0.839,9.791,14.148,13.538,22.961,12.877
							c6.701-0.502,11.675,6.139,13.675,9.352C1983.106,899.039,1983.233,900.287,1982.834,901.417z"/>
						
							<linearGradient id="SVGID_00000158012511879990435780000015253680103998164103_" gradientUnits="userSpaceOnUse" x1="9163.8252" y1="2051.1345" x2="9141.1592" y2="2117.1345" gradientTransform="matrix(-0.817 -0.5767 -0.5767 0.817 12563.1816 -1973.3862)">
							<stop  offset="0" style="stop-color:#FF928E"/>
							<stop  offset="1" style="stop-color:#FEB3B1"/>
						</linearGradient>
						<path style="fill:url(#SVGID_00000158012511879990435780000015253680103998164103_);" d="M1984.719,933.502
							c0,0,2.194-16.999,9.265-17.832c7.071-0.833,13.954,4.979,6.924,14.52C1992.163,942.058,1984.719,933.502,1984.719,933.502z"
							/>
					</g>
				</g>
			</g>
			<g>
				
					<linearGradient id="SVGID_00000044893150732962754630000011100308350739867041_" gradientUnits="userSpaceOnUse" x1="1997.3599" y1="190.7298" x2="1569.36" y2="1026.7299">
					<stop  offset="0" style="stop-color:#FE7062"/>
					<stop  offset="1" style="stop-color:#FF928E"/>
				</linearGradient>
				
					<circle style="fill:url(#SVGID_00000044893150732962754630000011100308350739867041_);" cx="1679.527" cy="811.544" r="246.541"/>
				<g style="opacity:0.8;">
					<g>
						<g>
							<path style="fill:#FFFFFF;" d="M1679.527,1050.206c-63.749,0-123.682-24.825-168.759-69.903
								c-45.078-45.077-69.903-105.011-69.903-168.76c0-63.749,24.825-123.682,69.903-168.759
								c45.077-45.077,105.01-69.902,168.759-69.902s123.682,24.825,168.76,69.902c45.078,45.077,69.903,105.01,69.903,168.759
								c0,63.749-24.825,123.683-69.903,168.76C1803.209,1025.381,1743.276,1050.206,1679.527,1050.206z M1679.527,574.882
								c-130.496,0-236.662,106.166-236.662,236.661c0,130.496,106.166,236.663,236.662,236.663s236.663-106.167,236.663-236.663
								C1916.189,681.048,1810.023,574.882,1679.527,574.882z"/>
						</g>
						<g style="opacity:0.71;">
							<path style="fill:#FFFFFF;" d="M1479.252,811.543c0-110.433,89.844-200.276,200.276-200.276
								c110.434,0,200.277,89.844,200.277,200.276c0,110.433-89.843,200.276-200.277,200.276
								C1569.095,1011.819,1479.252,921.976,1479.252,811.543z M1491.599,811.543c0,103.624,84.305,187.93,187.929,187.93
								c103.625,0,187.931-84.305,187.931-187.93c0-103.625-84.305-187.93-187.931-187.93
								C1575.903,623.614,1491.599,707.918,1491.599,811.543z"/>
						</g>
					</g>
					<path style="opacity:0.83;fill:#FFFFFF;" d="M1739.936,778.932h19.806c2.486,0,4.882-1.814,4.882-4.301v-13.503
						c0-25.246-20.917-45.676-46.165-45.676h-26.384v-18.458c0-4.167-5.085-7.545-11.336-7.545c-6.251,0-11.336,3.378-11.336,7.545
						v18.458h-26.054c-25.248,0-46.495,20.43-46.495,45.676v24.694c0,25.245,21.247,45.255,46.495,45.255h26.054v47.61h-26.054
						c-9.36,0-17.022-7.368-17.022-16.728v-1.158c0-2.486-1.97-4.786-4.456-4.786h-19.807c-2.486,0-5.211,2.3-5.211,4.786v1.158
						c0,25.245,21.247,43.934,46.495,43.934h26.054v20.2c0,4.167,5.085,7.545,11.336,7.545c6.251,0,11.336-3.378,11.336-7.545v-20.2
						h26.384c25.248,0,46.165-18.689,46.165-43.934v-13.376c0-25.246-20.917-46.98-46.165-46.98h-26.384v-58.946h26.384
						c9.36,0,16.692,9.11,16.692,18.47v13.503C1735.15,777.118,1737.449,778.932,1739.936,778.932z M1718.458,831.077
						c9.36,0,16.692,8.147,16.692,17.507v13.376c0,9.36-7.332,16.728-16.692,16.728h-26.384v-47.61H1718.458z M1669.402,801.604
						h-26.054c-9.36,0-17.022-6.422-17.022-15.782v-24.694c0-9.361,7.662-18.47,17.022-18.47h26.054V801.604z"/>
				</g>
			</g>
		</g>
		<g>
			<g>
				<path style="fill:#BDD0FB;" d="M473.217,1324.903c-0.366,0-0.717-0.2-0.894-0.549c-1.827-3.617-3.616-7.25-5.318-10.798
					c-0.239-0.498-0.029-1.096,0.469-1.334c0.498-0.243,1.095-0.029,1.334,0.469c1.696,3.536,3.479,7.156,5.3,10.761
					c0.249,0.493,0.051,1.095-0.442,1.344C473.522,1324.869,473.369,1324.903,473.217,1324.903z M462.829,1303.235
					c-0.38,0-0.744-0.218-0.911-0.587c-1.667-3.681-3.294-7.39-4.837-11.025c-0.216-0.509,0.022-1.096,0.53-1.312
					c0.507-0.214,1.095,0.022,1.311,0.53c1.537,3.621,3.158,7.315,4.818,10.981c0.228,0.503,0.005,1.095-0.498,1.323
					C463.107,1303.207,462.967,1303.235,462.829,1303.235z M453.45,1281.112c-0.399,0-0.776-0.24-0.931-0.634
					c-1.488-3.779-2.921-7.569-4.258-11.266c-0.188-0.519,0.081-1.093,0.6-1.28c0.52-0.188,1.093,0.081,1.281,0.601
					c1.331,3.678,2.757,7.45,4.238,11.213c0.203,0.514-0.05,1.095-0.564,1.297C453.695,1281.09,453.571,1281.112,453.45,1281.112z
					 M445.286,1258.515c-0.421,0-0.813-0.268-0.95-0.688c-1.262-3.856-2.459-7.729-3.557-11.513
					c-0.154-0.531,0.151-1.086,0.682-1.239c0.531-0.154,1.086,0.151,1.239,0.682c1.092,3.761,2.282,7.613,3.537,11.447
					c0.171,0.525-0.115,1.09-0.64,1.262C445.494,1258.499,445.389,1258.515,445.286,1258.515z M438.6,1235.437
					c-0.448,0-0.855-0.303-0.969-0.757c-0.989-3.944-1.896-7.897-2.697-11.749c-0.112-0.541,0.235-1.07,0.775-1.184
					c0.54-0.115,1.07,0.234,1.183,0.776c0.795,3.825,1.697,7.752,2.679,11.67c0.134,0.536-0.191,1.079-0.727,1.213
					C438.762,1235.427,438.68,1235.437,438.6,1235.437z M433.724,1211.913c-0.482,0-0.906-0.349-0.986-0.84
					c-0.649-4.011-1.201-8.032-1.641-11.951c-0.062-0.549,0.333-1.044,0.882-1.105c0.539-0.057,1.043,0.334,1.105,0.883
					c0.436,3.887,0.983,7.875,1.628,11.854c0.088,0.546-0.282,1.059-0.828,1.147
					C433.831,1211.909,433.777,1211.913,433.724,1211.913z M431.066,1188.04c-0.525,0-0.966-0.41-0.997-0.941
					c-0.235-4.05-0.355-8.1-0.355-12.037c0-0.553,0.448-1.014,1-1.014c0.552,0,1,0.434,1,0.985v0.028
					c0,3.898,0.119,7.909,0.352,11.921c0.032,0.551-0.389,1.023-0.94,1.056C431.105,1188.039,431.085,1188.04,431.066,1188.04z
					 M431.091,1164.029c-0.022,0-0.043-0.001-0.064-0.002c-0.551-0.035-0.969-0.51-0.935-1.062c0.256-4.042,0.65-8.082,1.168-12.006
					c0.073-0.548,0.578-0.93,1.122-0.86c0.548,0.072,0.933,0.575,0.86,1.122c-0.513,3.88-0.901,7.874-1.155,11.871
					C432.055,1163.622,431.615,1164.029,431.091,1164.029z M434.244,1140.283c-0.067,0-0.135-0.007-0.203-0.021
					c-0.541-0.111-0.889-0.641-0.778-1.182c0.811-3.937,1.778-7.87,2.873-11.693c0.152-0.529,0.704-0.837,1.237-0.686
					c0.531,0.151,0.838,0.705,0.686,1.236c-1.081,3.774-2.036,7.659-2.837,11.547
					C435.125,1139.958,434.708,1140.283,434.244,1140.283z M440.835,1117.299c-0.116,0-0.234-0.021-0.35-0.063
					c-0.517-0.192-0.78-0.769-0.588-1.286c1.398-3.75,2.962-7.487,4.647-11.109c0.233-0.5,0.828-0.72,1.329-0.484
					c0.501,0.232,0.718,0.827,0.485,1.328c-1.663,3.574-3.206,7.264-4.586,10.965
					C441.622,1117.051,441.24,1117.299,440.835,1117.299z M450.92,1095.619c-0.167,0-0.335-0.041-0.49-0.129
					c-0.481-0.271-0.651-0.882-0.38-1.362c1.953-3.463,4.078-6.913,6.315-10.256c0.308-0.46,0.929-0.583,1.387-0.275
					c0.459,0.307,0.582,0.929,0.275,1.388c-2.209,3.301-4.307,6.708-6.235,10.126
					C451.608,1095.437,451.269,1095.619,450.92,1095.619z M464.222,1075.721c-0.215,0-0.432-0.069-0.614-0.212
					c-0.435-0.34-0.513-0.968-0.173-1.403c2.436-3.121,5.039-6.228,7.738-9.233c0.369-0.41,1.001-0.445,1.412-0.076
					c0.411,0.369,0.445,1.001,0.076,1.412c-2.668,2.973-5.242,6.043-7.65,9.128C464.814,1075.589,464.52,1075.721,464.222,1075.721z
					 M480.208,1057.888c-0.259,0-0.518-0.101-0.714-0.3c-0.386-0.395-0.38-1.028,0.015-1.414c2.815-2.758,5.793-5.507,8.855-8.171
					c0.417-0.361,1.048-0.317,1.411,0.099c0.363,0.417,0.318,1.048-0.098,1.41c-3.032,2.639-5.982,5.36-8.769,8.09
					C480.713,1057.793,480.46,1057.888,480.208,1057.888z M498.283,1042.137c-0.297,0-0.592-0.133-0.79-0.386
					c-0.339-0.436-0.261-1.063,0.174-1.403c3.106-2.42,6.366-4.83,9.688-7.164c0.454-0.319,1.076-0.206,1.393,0.243
					c0.317,0.452,0.208,1.076-0.244,1.394c-3.295,2.315-6.528,4.706-9.608,7.105
					C498.714,1042.067,498.498,1042.137,498.283,1042.137z M517.908,1028.328c-0.33,0-0.653-0.163-0.844-0.462
					c-0.297-0.466-0.16-1.084,0.306-1.381c3.313-2.113,6.775-4.22,10.292-6.264c0.478-0.277,1.089-0.117,1.367,0.361
					c0.277,0.477,0.115,1.09-0.362,1.367c-3.492,2.03-6.931,4.123-10.221,6.222C518.278,1028.277,518.092,1028.328,517.908,1028.328
					z M538.659,1016.247c-0.358,0-0.704-0.192-0.883-0.53c-0.26-0.487-0.075-1.093,0.412-1.352
					c3.468-1.848,7.077-3.691,10.727-5.481c0.495-0.247,1.094-0.04,1.338,0.457c0.243,0.496,0.038,1.095-0.458,1.338
					c-3.629,1.78-7.218,3.613-10.666,5.451C538.978,1016.209,538.817,1016.247,538.659,1016.247z M560.224,1005.662
					c-0.38,0-0.744-0.219-0.912-0.588c-0.228-0.503-0.004-1.096,0.499-1.323c3.591-1.625,7.306-3.243,11.041-4.81
					c0.511-0.217,1.095,0.026,1.309,0.535c0.214,0.509-0.026,1.096-0.535,1.309c-3.717,1.56-7.415,3.17-10.99,4.788
					C560.502,1005.634,560.362,1005.662,560.224,1005.662z M582.38,996.359c-0.4,0-0.778-0.241-0.932-0.637
					c-0.201-0.515,0.054-1.095,0.569-1.295c3.679-1.434,7.471-2.859,11.271-4.238c0.52-0.188,1.093,0.079,1.281,0.599
					c0.188,0.518-0.08,1.093-0.599,1.28c-3.785,1.375-7.563,2.795-11.228,4.223C582.623,996.338,582.5,996.359,582.38,996.359z
					 M604.97,988.151c-0.417,0-0.806-0.263-0.947-0.679c-0.177-0.523,0.103-1.091,0.626-1.269c3.732-1.265,7.581-2.527,11.441-3.751
					c0.524-0.169,1.089,0.123,1.255,0.65c0.167,0.527-0.124,1.089-0.651,1.256c-3.847,1.221-7.683,2.479-11.402,3.739
					C605.185,988.135,605.076,988.151,604.97,988.151z M627.882,980.879c-0.431,0-0.829-0.28-0.958-0.715
					c-0.158-0.529,0.144-1.086,0.673-1.244c3.779-1.124,7.671-2.245,11.567-3.333c0.532-0.152,1.084,0.162,1.232,0.694
					c0.148,0.531-0.163,1.083-0.694,1.231c-3.885,1.085-7.766,2.203-11.535,3.324C628.073,980.865,627.977,980.879,627.882,980.879z
					 M651.036,974.405c-0.443,0-0.849-0.297-0.967-0.746c-0.14-0.534,0.179-1.081,0.713-1.221c3.813-1.003,7.736-2.004,11.663-2.976
					c0.539-0.138,1.079,0.195,1.211,0.731c0.133,0.536-0.194,1.078-0.731,1.211c-3.917,0.97-7.832,1.969-11.635,2.968
					C651.205,974.394,651.12,974.405,651.036,974.405z M674.372,968.623c-0.454,0-0.865-0.311-0.973-0.772
					c-0.126-0.538,0.208-1.075,0.746-1.201c3.836-0.896,7.785-1.794,11.735-2.667c0.541-0.12,1.073,0.222,1.192,0.761
					c0.119,0.539-0.222,1.073-0.761,1.192c-3.943,0.871-7.883,1.767-11.712,2.661C674.524,968.614,674.448,968.623,674.372,968.623z
					 M697.85,963.435c-0.463,0-0.879-0.324-0.978-0.795c-0.113-0.541,0.234-1.071,0.774-1.184c3.908-0.817,7.839-1.617,11.792-2.399
					c0.546-0.108,1.068,0.244,1.175,0.786c0.107,0.542-0.245,1.068-0.787,1.175c-3.946,0.782-7.87,1.58-11.771,2.396
					C697.986,963.429,697.917,963.435,697.85,963.435z M721.437,958.76c-0.472,0-0.892-0.335-0.982-0.816
					c-0.102-0.543,0.255-1.065,0.798-1.167c3.926-0.738,7.871-1.461,11.834-2.168c0.542-0.103,1.063,0.264,1.16,0.809
					c0.097,0.544-0.265,1.063-0.809,1.16c-3.958,0.706-7.897,1.428-11.817,2.164C721.56,958.754,721.498,958.76,721.437,958.76z
					 M745.107,954.531c-0.479,0-0.902-0.345-0.985-0.832c-0.092-0.545,0.274-1.062,0.818-1.154c3.94-0.669,7.897-1.324,11.869-1.968
					c0.545-0.087,1.059,0.282,1.147,0.827c0.088,0.546-0.282,1.06-0.828,1.148c-3.967,0.642-7.918,1.297-11.853,1.966
					C745.219,954.526,745.163,954.531,745.107,954.531z M768.843,950.688c-0.485,0-0.911-0.353-0.987-0.848
					c-0.085-0.546,0.29-1.057,0.835-1.141c3.952-0.61,7.917-1.209,11.895-1.795c0.548-0.083,1.055,0.297,1.135,0.844
					c0.081,0.546-0.297,1.055-0.843,1.135c-3.974,0.586-7.935,1.183-11.881,1.793C768.945,950.685,768.894,950.688,768.843,950.688z
					 M792.631,947.179c-0.49,0-0.918-0.36-0.989-0.86c-0.077-0.547,0.304-1.053,0.85-1.13c3.962-0.56,7.935-1.107,11.917-1.646
					c0.544-0.071,1.051,0.31,1.125,0.857c0.074,0.547-0.31,1.051-0.857,1.125c-3.978,0.537-7.947,1.085-11.905,1.644
					C792.725,947.176,792.678,947.179,792.631,947.179z M816.46,943.953c-0.495,0-0.925-0.367-0.99-0.871
					c-0.071-0.548,0.315-1.05,0.863-1.121c3.97-0.516,7.948-1.021,11.933-1.518c0.547-0.073,1.047,0.32,1.116,0.868
					c0.068,0.548-0.32,1.048-0.868,1.116c-3.982,0.497-7.956,1.003-11.922,1.517C816.547,943.95,816.503,943.953,816.46,943.953z
					 M840.322,940.975c-0.499,0-0.93-0.373-0.991-0.881c-0.066-0.548,0.325-1.046,0.873-1.112c3.977-0.478,7.958-0.948,11.944-1.411
					c0.552-0.059,1.046,0.329,1.109,0.878c0.064,0.549-0.329,1.045-0.878,1.108c-3.983,0.463-7.962,0.933-11.936,1.411
					C840.402,940.973,840.362,940.975,840.322,940.975z M864.208,938.2c-0.502,0-0.936-0.378-0.993-0.889
					c-0.062-0.549,0.333-1.043,0.882-1.105c3.982-0.447,7.967-0.888,11.954-1.321c0.551-0.063,1.042,0.337,1.102,0.886
					c0.06,0.549-0.337,1.043-0.886,1.102c-3.985,0.434-7.968,0.874-11.947,1.321C864.283,938.198,864.246,938.2,864.208,938.2z
					 M888.149,935.593c-0.505,0-0.939-0.381-0.993-0.895c-0.058-0.55,0.34-1.042,0.89-1.1c3.994-0.423,7.99-0.84,11.985-1.252
					c0.549-0.057,1.041,0.343,1.097,0.892c0.057,0.55-0.343,1.04-0.892,1.098c-3.993,0.412-7.987,0.828-11.98,1.251
					C888.22,935.591,888.184,935.593,888.149,935.593z M912.104,933.121c-0.507,0-0.942-0.384-0.994-0.899
					c-0.055-0.55,0.345-1.04,0.895-1.096c3.99-0.402,7.979-0.8,11.965-1.193c0.551-0.039,1.04,0.348,1.093,0.896
					c0.054,0.55-0.347,1.039-0.897,1.094c-3.984,0.393-7.972,0.791-11.961,1.193C912.172,933.119,912.138,933.121,912.104,933.121z
					 M936.019,930.758c-0.509,0-0.944-0.387-0.994-0.903c-0.053-0.55,0.349-1.039,0.899-1.092c3.984-0.386,7.966-0.769,11.942-1.15
					c0.549-0.059,1.038,0.35,1.091,0.899c0.052,0.55-0.351,1.038-0.9,1.091c-3.976,0.381-7.956,0.765-11.94,1.15
					C936.084,930.757,936.051,930.758,936.019,930.758z M959.89,928.472c-0.509,0-0.945-0.388-0.994-0.905
					c-0.052-0.55,0.352-1.038,0.901-1.09l11.971-1.132c0.54-0.058,1.037,0.352,1.089,0.902c0.052,0.55-0.352,1.037-0.902,1.089
					l-11.97,1.131C959.954,928.471,959.922,928.472,959.89,928.472z M983.833,926.217c-0.51,0-0.946-0.389-0.995-0.906
					c-0.052-0.551,0.353-1.038,0.902-1.089l11.972-1.123c0.549-0.064,1.037,0.353,1.089,0.901c0.052,0.55-0.352,1.038-0.902,1.09
					l-11.972,1.122C983.896,926.216,983.864,926.217,983.833,926.217z M1007.775,923.969c-0.51,0-0.946-0.388-0.995-0.906
					c-0.052-0.55,0.352-1.037,0.901-1.089l11.97-1.134c0.558-0.071,1.038,0.352,1.09,0.9c0.052,0.55-0.351,1.038-0.901,1.09
					l-11.971,1.135C1007.838,923.968,1007.806,923.969,1007.775,923.969z M1031.715,921.69c-0.509,0-0.944-0.387-0.994-0.904
					c-0.053-0.55,0.35-1.038,0.899-1.091c4.003-0.386,7.992-0.772,11.966-1.162c0.547-0.04,1.039,0.348,1.093,0.897
					s-0.348,1.039-0.897,1.093c-3.975,0.39-7.966,0.776-11.97,1.162C1031.78,921.688,1031.747,921.69,1031.715,921.69z
					 M1055.649,919.345c-0.507,0-0.942-0.385-0.994-0.9c-0.055-0.55,0.346-1.04,0.896-1.095c4.004-0.4,7.992-0.804,11.961-1.211
					c0.552-0.047,1.04,0.343,1.097,0.894c0.057,0.549-0.343,1.04-0.893,1.097c-3.971,0.407-7.959,0.811-11.966,1.211
					C1055.716,919.343,1055.682,919.345,1055.649,919.345z M1079.573,916.891c-0.505,0-0.939-0.382-0.994-0.896
					c-0.058-0.549,0.34-1.041,0.89-1.099c4.006-0.423,7.99-0.85,11.953-1.282c0.549-0.054,1.042,0.337,1.103,0.886
					c0.06,0.549-0.336,1.043-0.886,1.102c-3.964,0.433-7.952,0.859-11.959,1.282
					C1079.644,916.889,1079.608,916.891,1079.573,916.891z M1103.48,914.281c-0.502,0-0.935-0.377-0.993-0.888
					c-0.062-0.549,0.333-1.044,0.881-1.106c4.005-0.453,7.986-0.913,11.94-1.38c0.546-0.066,1.045,0.327,1.11,0.876
					c0.064,0.549-0.328,1.046-0.876,1.11c-3.958,0.467-7.942,0.927-11.95,1.381C1103.556,914.279,1103.518,914.281,1103.48,914.281z
					 M1127.364,911.46c-0.498,0-0.929-0.371-0.991-0.878c-0.067-0.548,0.322-1.047,0.871-1.114l1.758-0.217
					c3.35-0.416,6.739-0.841,10.164-1.274c0.544-0.057,1.048,0.318,1.118,0.866s-0.319,1.049-0.867,1.118
					c-3.427,0.434-6.816,0.858-10.169,1.275l-1.759,0.217C1127.446,911.457,1127.405,911.46,1127.364,911.46z M1151.212,908.446
					c-0.495,0-0.925-0.368-0.99-0.872c-0.071-0.548,0.316-1.049,0.864-1.119c3.929-0.507,7.903-1.025,11.919-1.555
					c0.543-0.074,1.05,0.314,1.122,0.86c0.072,0.548-0.313,1.05-0.86,1.122c-4.018,0.529-7.993,1.049-11.924,1.556
					C1151.298,908.443,1151.254,908.446,1151.212,908.446z M1175.053,905.305c-0.493,0-0.922-0.364-0.99-0.866
					c-0.073-0.548,0.311-1.052,0.858-1.125c3.935-0.529,7.907-1.069,11.915-1.619c0.548-0.073,1.051,0.309,1.126,0.856
					s-0.308,1.052-0.855,1.126c-4.009,0.551-7.983,1.091-11.92,1.62C1175.142,905.302,1175.097,905.305,1175.053,905.305z
					 M1198.883,902.035c-0.491,0-0.919-0.361-0.989-0.861c-0.077-0.547,0.305-1.053,0.852-1.129
					c3.937-0.552,7.906-1.113,11.905-1.686c0.544-0.075,1.053,0.302,1.132,0.849c0.078,0.547-0.302,1.054-0.849,1.132
					c-4.001,0.572-7.972,1.134-11.911,1.686C1198.976,902.032,1198.929,902.035,1198.883,902.035z M1222.694,898.63
					c-0.489,0-0.916-0.358-0.989-0.855c-0.08-0.547,0.299-1.055,0.846-1.134c3.938-0.574,7.903-1.158,11.894-1.753
					c0.547-0.084,1.055,0.295,1.137,0.842c0.081,0.546-0.296,1.055-0.842,1.137c-3.993,0.595-7.961,1.179-11.901,1.753
					C1222.79,898.627,1222.742,898.63,1222.694,898.63z M1246.482,895.088c-0.486,0-0.913-0.354-0.988-0.85
					c-0.083-0.547,0.293-1.057,0.839-1.139c3.938-0.598,7.899-1.206,11.883-1.824c0.545-0.087,1.057,0.289,1.142,0.835
					c0.084,0.546-0.289,1.057-0.835,1.142c-3.986,0.618-7.949,1.227-11.89,1.824
					C1246.583,895.084,1246.532,895.088,1246.482,895.088z M1270.249,891.404c-0.483,0-0.908-0.352-0.986-0.844
					c-0.086-0.546,0.286-1.058,0.832-1.143c3.938-0.623,7.895-1.256,11.872-1.898c0.539-0.09,1.058,0.282,1.146,0.828
					c0.088,0.545-0.283,1.059-0.828,1.146c-3.979,0.642-7.938,1.275-11.877,1.898C1270.354,891.4,1270.301,891.404,1270.249,891.404
					z M1293.991,887.571c-0.48,0-0.904-0.348-0.985-0.838c-0.09-0.545,0.279-1.059,0.824-1.148
					c3.936-0.648,7.889-1.307,11.859-1.974c0.539-0.095,1.06,0.275,1.152,0.82c0.091,0.545-0.276,1.061-0.821,1.152
					c-3.972,0.667-7.927,1.325-11.865,1.974C1294.1,887.567,1294.045,887.571,1293.991,887.571z M1317.708,883.585
					c-0.478,0-0.9-0.344-0.984-0.831c-0.093-0.544,0.272-1.062,0.817-1.154c3.934-0.675,7.882-1.358,11.845-2.052
					c0.544-0.093,1.062,0.268,1.157,0.813c0.095,0.545-0.269,1.063-0.813,1.158c-3.964,0.693-7.916,1.377-11.852,2.052
					C1317.821,883.58,1317.764,883.585,1317.708,883.585z M1341.397,879.44c-0.475,0-0.896-0.34-0.983-0.824
					c-0.097-0.544,0.265-1.064,0.809-1.16c3.932-0.702,7.875-1.413,11.83-2.133c0.543-0.106,1.064,0.261,1.163,0.804
					c0.099,0.544-0.261,1.064-0.805,1.163c-3.957,0.722-7.903,1.433-11.837,2.135C1341.515,879.435,1341.456,879.44,1341.397,879.44
					z M1365.056,875.13c-0.473,0-0.893-0.336-0.982-0.817c-0.101-0.543,0.257-1.065,0.8-1.166c3.928-0.73,7.866-1.469,11.813-2.218
					c0.545-0.1,1.066,0.254,1.169,0.796c0.103,0.543-0.253,1.066-0.796,1.169c-3.95,0.749-7.891,1.489-11.821,2.22
					C1365.178,875.124,1365.117,875.13,1365.056,875.13z M1388.683,870.648c-0.47,0-0.888-0.332-0.981-0.809
					c-0.105-0.543,0.25-1.067,0.792-1.172c3.924-0.76,7.856-1.529,11.796-2.308c0.545-0.108,1.068,0.247,1.175,0.788
					c0.107,0.541-0.246,1.067-0.787,1.175c-3.942,0.778-7.877,1.548-11.804,2.308
					C1388.81,870.643,1388.746,870.648,1388.683,870.648z M1412.274,865.987c-0.466,0-0.883-0.327-0.979-0.802
					c-0.109-0.542,0.241-1.069,0.782-1.179c3.92-0.791,7.846-1.591,11.777-2.4c0.54-0.111,1.069,0.236,1.181,0.778
					c0.111,0.54-0.237,1.069-0.778,1.181c-3.934,0.81-7.862,1.609-11.785,2.402C1412.406,865.981,1412.339,865.987,1412.274,865.987
					z M1435.827,861.138c-0.463,0-0.878-0.323-0.978-0.794c-0.114-0.541,0.232-1.071,0.773-1.185
					c3.915-0.823,7.834-1.656,11.757-2.497c0.538-0.116,1.071,0.229,1.187,0.768c0.116,0.54-0.228,1.072-0.768,1.188
					c-3.926,0.842-7.848,1.676-11.766,2.499C1435.964,861.131,1435.895,861.138,1435.827,861.138z M1459.338,856.09
					c-0.46,0-0.874-0.318-0.976-0.786c-0.119-0.539,0.223-1.072,0.762-1.19c3.909-0.857,7.821-1.724,11.735-2.599
					c0.54-0.117,1.073,0.219,1.194,0.757c0.121,0.539-0.219,1.074-0.758,1.194c-3.917,0.877-7.832,1.743-11.743,2.601
					C1459.481,856.082,1459.409,856.09,1459.338,856.09z M1482.804,850.839c-0.456,0-0.868-0.314-0.974-0.777
					c-0.124-0.538,0.213-1.074,0.751-1.197c3.902-0.893,7.806-1.795,11.71-2.706c0.538-0.132,1.076,0.208,1.201,0.746
					c0.126,0.538-0.208,1.076-0.746,1.201c-3.907,0.912-7.813,1.815-11.719,2.708
					C1482.953,850.831,1482.878,850.839,1482.804,850.839z M1506.221,845.368c-0.452,0-0.862-0.309-0.972-0.768
					c-0.128-0.537,0.203-1.077,0.741-1.205c3.895-0.93,7.79-1.868,11.683-2.817c0.535-0.132,1.078,0.197,1.208,0.735
					c0.131,0.536-0.198,1.077-0.735,1.208c-3.896,0.949-7.794,1.89-11.692,2.819
					C1506.376,845.359,1506.298,845.368,1506.221,845.368z M1529.624,839.662c-0.448,0-0.856-0.304-0.969-0.758
					c-0.134-0.536,0.192-1.079,0.729-1.213c3.896-0.971,7.792-1.952,11.683-2.943c0.535-0.141,1.08,0.187,1.216,0.722
					c0.136,0.535-0.187,1.08-0.722,1.216c-3.895,0.993-7.793,1.975-11.693,2.947
					C1529.785,839.652,1529.704,839.662,1529.624,839.662z M1552.974,833.713c-0.444,0-0.85-0.298-0.967-0.748
					c-0.139-0.534,0.181-1.08,0.715-1.22c3.88-1.011,7.756-2.032,11.627-3.064c0.534-0.146,1.082,0.175,1.224,0.708
					c0.142,0.534-0.175,1.082-0.709,1.225c-3.875,1.032-7.754,2.054-11.637,3.066
					C1553.142,833.702,1553.057,833.713,1552.974,833.713z M1576.21,827.519c-0.44,0-0.843-0.292-0.964-0.737
					c-0.145-0.532,0.169-1.082,0.702-1.228c3.861-1.053,7.718-2.116,11.568-3.19c0.532-0.149,1.083,0.162,1.232,0.694
					c0.148,0.532-0.163,1.083-0.695,1.231c-3.854,1.075-7.714,2.139-11.579,3.193
					C1576.385,827.508,1576.297,827.519,1576.21,827.519z M1599.327,821.07c-0.435,0-0.835-0.286-0.961-0.726
					c-0.152-0.53,0.156-1.084,0.687-1.236c3.843-1.098,7.678-2.206,11.506-3.324c0.523-0.157,1.085,0.148,1.24,0.68
					c0.155,0.53-0.149,1.085-0.679,1.24c-3.832,1.119-7.671,2.229-11.518,3.328C1599.51,821.058,1599.417,821.07,1599.327,821.07z
					 M1622.368,814.333c-0.43,0-0.828-0.28-0.958-0.714c-0.158-0.528,0.142-1.086,0.671-1.244c3.843-1.149,7.676-2.312,11.499-3.484
					c0.528-0.164,1.087,0.135,1.25,0.663c0.162,0.527-0.135,1.087-0.663,1.249c-3.828,1.175-7.666,2.337-11.513,3.488
					C1622.56,814.319,1622.463,814.333,1622.368,814.333z M1645.356,807.28c-0.425,0-0.82-0.273-0.954-0.7
					c-0.166-0.526,0.127-1.088,0.654-1.254c3.828-1.203,7.644-2.418,11.449-3.645c0.525-0.164,1.089,0.119,1.259,0.645
					c0.169,0.525-0.119,1.089-0.645,1.259c-3.81,1.227-7.631,2.444-11.463,3.649C1645.557,807.266,1645.456,807.28,1645.356,807.28z
					 M1668.242,799.901c-0.42,0-0.811-0.266-0.95-0.687c-0.173-0.523,0.111-1.09,0.636-1.263c3.811-1.26,7.608-2.533,11.393-3.817
					c0.522-0.177,1.091,0.102,1.268,0.626c0.178,0.523-0.103,1.091-0.625,1.269c-3.789,1.286-7.592,2.56-11.407,3.821
					C1668.451,799.885,1668.346,799.901,1668.242,799.901z M1691.011,792.174c-0.414,0-0.8-0.258-0.944-0.671
					c-0.182-0.522,0.094-1.092,0.615-1.273c3.792-1.322,7.568-2.655,11.329-4.001c0.521-0.185,1.093,0.084,1.278,0.604
					c0.186,0.519-0.084,1.093-0.604,1.278c-3.766,1.348-7.547,2.683-11.344,4.007
					C1691.231,792.156,1691.12,792.174,1691.011,792.174z M1713.649,784.069c-0.407,0-0.79-0.25-0.938-0.654
					c-0.191-0.518,0.075-1.094,0.593-1.284c3.77-1.387,7.521-2.786,11.255-4.199c0.516-0.193,1.094,0.065,1.289,0.582
					c0.196,0.517-0.064,1.094-0.581,1.289c-3.74,1.415-7.498,2.816-11.273,4.205C1713.881,784.05,1713.764,784.069,1713.649,784.069
					z M1736.138,775.56c-0.4,0-0.778-0.242-0.932-0.637c-0.2-0.515,0.055-1.095,0.569-1.295c3.745-1.458,7.469-2.929,11.173-4.413
					c0.515-0.207,1.095,0.044,1.3,0.557s-0.043,1.095-0.556,1.301c-3.71,1.486-7.441,2.959-11.191,4.419
					C1736.381,775.538,1736.258,775.56,1736.138,775.56z M1758.457,766.613c-0.393,0-0.766-0.232-0.925-0.618
					c-0.211-0.511,0.032-1.096,0.542-1.306c3.703-1.529,7.43-3.092,11.077-4.646c0.508-0.218,1.096,0.019,1.312,0.528
					c0.216,0.508-0.02,1.095-0.528,1.311c-3.654,1.557-7.387,3.122-11.097,4.654
					C1758.713,766.589,1758.583,766.613,1758.457,766.613z M1780.578,757.19c-0.385,0-0.751-0.223-0.916-0.598
					c-0.222-0.506,0.008-1.096,0.513-1.317c3.691-1.622,7.38-3.271,10.966-4.897c0.504-0.231,1.096-0.006,1.324,0.497
					s0.005,1.096-0.497,1.323c-3.593,1.632-7.29,3.282-10.988,4.908C1780.849,757.163,1780.712,757.19,1780.578,757.19z
					 M1802.47,747.25c-0.375,0-0.736-0.213-0.906-0.575c-0.235-0.5-0.02-1.096,0.48-1.33c3.614-1.695,7.26-3.436,10.837-5.173
					c0.497-0.241,1.095-0.035,1.336,0.463c0.241,0.496,0.034,1.095-0.462,1.336c-3.585,1.741-7.239,3.485-10.861,5.185
					C1802.757,747.22,1802.613,747.25,1802.47,747.25z M1824.095,736.743c-0.366,0-0.718-0.201-0.894-0.551
					c-0.248-0.493-0.049-1.095,0.444-1.343c3.578-1.8,7.173-3.642,10.686-5.475c0.487-0.256,1.093-0.065,1.349,0.424
					c0.255,0.49,0.065,1.094-0.424,1.35c-3.522,1.837-7.126,3.684-10.712,5.488C1824.4,736.709,1824.247,736.743,1824.095,736.743z
					 M1845.409,725.617c-0.355,0-0.699-0.19-0.88-0.523c-0.263-0.485-0.083-1.093,0.402-1.356c3.534-1.916,7.069-3.87,10.506-5.808
					c0.481-0.275,1.091-0.102,1.362,0.38c0.271,0.482,0.101,1.091-0.38,1.362c-3.447,1.942-6.991,3.902-10.535,5.823
					C1845.733,725.578,1845.569,725.617,1845.409,725.617z M1866.348,713.807c-0.343,0-0.677-0.177-0.863-0.493
					c-0.28-0.477-0.12-1.09,0.356-1.369c3.48-2.044,6.942-4.12,10.292-6.173c0.471-0.288,1.087-0.142,1.375,0.33
					c0.289,0.471,0.141,1.087-0.33,1.375c-3.36,2.059-6.833,4.142-10.324,6.192C1866.694,713.763,1866.52,713.807,1866.348,713.807z
					 M1886.843,701.242c-0.33,0-0.652-0.162-0.843-0.46c-0.298-0.466-0.163-1.084,0.302-1.382c3.397-2.177,6.773-4.39,10.034-6.578
					c0.458-0.311,1.079-0.187,1.388,0.272c0.308,0.459,0.185,1.08-0.273,1.388c-3.273,2.196-6.661,4.418-10.069,6.602
					C1887.214,701.191,1887.027,701.242,1886.843,701.242z M1906.798,687.844c-0.314,0-0.624-0.148-0.818-0.424
					c-0.318-0.451-0.21-1.075,0.241-1.393c3.308-2.332,6.579-4.695,9.721-7.025c0.444-0.33,1.07-0.235,1.399,0.208
					c0.329,0.443,0.236,1.07-0.208,1.399c-3.156,2.339-6.439,4.712-9.76,7.053C1907.198,687.784,1906.998,687.844,1906.798,687.844z
					 M1926.1,673.524c-0.297,0-0.591-0.132-0.789-0.384c-0.34-0.435-0.264-1.064,0.171-1.404c3.161-2.473,6.303-5.002,9.338-7.517
					c0.426-0.353,1.056-0.294,1.408,0.133c0.353,0.425,0.293,1.056-0.132,1.408c-3.05,2.525-6.206,5.066-9.382,7.551
					C1926.533,673.455,1926.315,673.524,1926.1,673.524z M1944.597,658.188c-0.277,0-0.554-0.114-0.751-0.339
					c-0.365-0.415-0.325-1.047,0.09-1.412c3.018-2.656,6.001-5.367,8.866-8.057c0.403-0.378,1.035-0.359,1.414,0.044
					c0.378,0.402,0.358,1.035-0.044,1.414c-2.881,2.704-5.88,5.43-8.914,8.101C1945.067,658.106,1944.832,658.188,1944.597,658.188z
					 M1962.102,641.739c-0.255,0-0.51-0.097-0.705-0.291c-0.392-0.389-0.394-1.022-0.004-1.414c2.834-2.852,5.621-5.76,8.283-8.645
					c0.375-0.408,1.007-0.431,1.413-0.058c0.406,0.375,0.431,1.008,0.057,1.413c-2.679,2.903-5.483,5.83-8.334,8.699
					C1962.615,641.641,1962.358,641.739,1962.102,641.739z M1978.378,624.085c-0.229,0-0.459-0.078-0.648-0.238
					c-0.42-0.358-0.471-0.989-0.113-1.41c2.605-3.06,5.149-6.179,7.562-9.27c0.34-0.436,0.969-0.512,1.403-0.173
					c0.435,0.34,0.513,0.968,0.173,1.403c-2.429,3.113-4.991,6.254-7.615,9.336C1978.942,623.966,1978.661,624.085,1978.378,624.085
					z M1993.134,605.155c-0.2,0-0.402-0.06-0.578-0.185c-0.451-0.319-0.557-0.943-0.237-1.395c2.315-3.263,4.562-6.597,6.676-9.91
					c0.297-0.465,0.916-0.603,1.381-0.305c0.465,0.297,0.602,0.915,0.305,1.381c-2.132,3.341-4.396,6.702-6.731,9.992
					C1993.756,605.009,1993.447,605.155,1993.134,605.155z M2006.031,584.93c-0.167,0-0.337-0.042-0.493-0.13
					c-0.48-0.273-0.649-0.884-0.376-1.364c1.971-3.472,3.858-7.017,5.608-10.536c0.246-0.495,0.848-0.697,1.341-0.45
					c0.495,0.246,0.696,0.847,0.45,1.341c-1.767,3.552-3.671,7.129-5.66,10.634C2006.717,584.748,2006.379,584.93,2006.031,584.93z
					 M2016.696,563.463c-0.131,0-0.265-0.025-0.393-0.08c-0.508-0.218-0.744-0.806-0.526-1.314
					c1.565-3.659,3.033-7.393,4.361-11.099c0.186-0.52,0.757-0.791,1.279-0.604c0.52,0.187,0.791,0.759,0.604,1.279
					c-1.342,3.742-2.824,7.514-4.405,11.21C2017.454,563.235,2017.084,563.463,2016.696,563.463z M2024.779,540.911
					c-0.092,0-0.187-0.013-0.28-0.04c-0.53-0.154-0.835-0.709-0.681-1.239c1.103-3.795,2.098-7.663,2.958-11.497
					c0.121-0.538,0.655-0.875,1.195-0.757c0.539,0.121,0.878,0.655,0.757,1.194c-0.869,3.875-1.874,7.783-2.988,11.618
					C2025.611,540.627,2025.212,540.911,2024.779,540.911z M2030.006,517.569c-0.052,0-0.105-0.004-0.158-0.013
					c-0.545-0.086-0.917-0.599-0.831-1.143c0.619-3.9,1.122-7.876,1.495-11.816c0.052-0.55,0.537-0.948,1.09-0.902
					c0.55,0.053,0.953,0.54,0.901,1.09c-0.377,3.982-0.885,8-1.51,11.941C2030.914,517.219,2030.489,517.569,2030.006,517.569z
					 M2032.267,493.741c-0.011,0-0.022,0-0.033-0.001c-0.552-0.018-0.985-0.479-0.967-1.031c0.069-2.123,0.104-4.276,0.104-6.4
					c0-1.83-0.026-3.694-0.077-5.541c-0.015-0.552,0.419-1.012,0.972-1.027c0.01,0,0.019,0,0.028,0c0.54,0,0.984,0.43,0.999,0.972
					c0.052,1.865,0.078,3.748,0.078,5.597c0,2.146-0.035,4.32-0.105,6.465C2033.248,493.315,2032.804,493.741,2032.267,493.741z
					 M2031.606,469.741c-0.514,0-0.951-0.393-0.996-0.914c-0.338-3.923-0.796-7.922-1.361-11.884
					c-0.078-0.547,0.302-1.054,0.849-1.132c0.544-0.084,1.053,0.302,1.131,0.849c0.57,4,1.033,8.035,1.374,11.995
					c0.047,0.551-0.36,1.035-0.91,1.082C2031.664,469.74,2031.635,469.741,2031.606,469.741z M2028.226,445.957
					c-0.468,0-0.886-0.33-0.98-0.807c-0.761-3.861-1.637-7.79-2.605-11.678c-0.133-0.536,0.193-1.079,0.729-1.213
					c0.533-0.132,1.078,0.192,1.212,0.729c0.976,3.92,1.859,7.882,2.626,11.774c0.107,0.542-0.246,1.067-0.788,1.175
					C2028.355,445.951,2028.29,445.957,2028.226,445.957z M2022.434,422.643c-0.43,0-0.828-0.28-0.958-0.714
					c-1.125-3.761-2.364-7.593-3.683-11.39c-0.181-0.521,0.095-1.092,0.617-1.272c0.519-0.184,1.091,0.094,1.273,0.616
					c1.328,3.824,2.576,7.685,3.709,11.474c0.158,0.528-0.142,1.086-0.671,1.244
					C2022.625,422.629,2022.528,422.643,2022.434,422.643z M2014.565,399.943c-0.399,0-0.776-0.24-0.931-0.634
					c-0.657-1.671-1.333-3.346-2.028-5.026c-0.839-2.028-1.692-4.043-2.56-6.041c-0.22-0.507,0.013-1.096,0.52-1.315
					c0.505-0.223,1.096,0.013,1.315,0.519c0.872,2.01,1.73,4.034,2.574,6.074c0.699,1.69,1.379,3.377,2.041,5.058
					c0.202,0.514-0.051,1.095-0.564,1.297C2014.811,399.921,2014.687,399.943,2014.565,399.943z M2005.004,377.902
					c-0.375,0-0.734-0.211-0.905-0.572c-1.699-3.598-3.48-7.212-5.293-10.744c-0.252-0.492-0.059-1.095,0.433-1.347
					c0.492-0.257,1.094-0.059,1.346,0.433c1.823,3.553,3.614,7.186,5.323,10.804c0.236,0.499,0.022,1.095-0.477,1.331
					C2005.293,377.872,2005.147,377.902,2005.004,377.902z M1994.039,356.538c-0.352,0-0.692-0.186-0.875-0.515
					c-1.933-3.478-3.949-6.965-5.992-10.365c-0.284-0.473-0.131-1.088,0.342-1.372c0.473-0.284,1.087-0.132,1.373,0.343
					c2.054,3.419,4.081,6.926,6.025,10.423c0.268,0.483,0.095,1.092-0.388,1.36C1994.37,356.498,1994.204,356.538,1994.039,356.538z
					 M1981.675,335.957c-0.328,0-0.649-0.161-0.84-0.456c-2.167-3.344-4.414-6.686-6.68-9.936c-0.316-0.453-0.205-1.076,0.249-1.392
					c0.452-0.315,1.077-0.204,1.392,0.248c2.279,3.269,4.54,6.63,6.718,9.992c0.3,0.464,0.168,1.083-0.295,1.383
					C1982.05,335.905,1981.861,335.957,1981.675,335.957z M1967.939,316.265c-0.304,0-0.604-0.138-0.801-0.4
					c-2.385-3.183-4.856-6.364-7.344-9.456c-0.347-0.431-0.278-1.06,0.152-1.406c0.431-0.345,1.06-0.276,1.406,0.152
					c2.502,3.109,4.987,6.31,7.386,9.511c0.331,0.441,0.241,1.068-0.201,1.4C1968.358,316.199,1968.148,316.265,1967.939,316.265z
					 M1952.888,297.556c-0.281,0-0.56-0.117-0.758-0.347c-2.601-3.015-5.284-6.021-7.974-8.934
					c-0.375-0.406-0.349-1.039,0.057-1.413c0.406-0.375,1.039-0.348,1.413,0.056c2.705,2.931,5.402,5.953,8.019,8.984
					c0.36,0.418,0.314,1.05-0.104,1.41C1953.352,297.476,1953.12,297.556,1952.888,297.556z M1936.597,279.913
					c-0.258,0-0.516-0.1-0.711-0.297c-2.786-2.821-5.665-5.641-8.556-8.381c-0.401-0.38-0.418-1.013-0.038-1.413
					c0.379-0.402,1.013-0.418,1.414-0.038c2.907,2.755,5.801,5.59,8.603,8.426c0.388,0.393,0.384,1.026-0.009,1.415
					C1937.105,279.817,1936.851,279.913,1936.597,279.913z M1919.166,263.393c-0.236,0-0.473-0.083-0.664-0.252
					c-2.967-2.632-6.024-5.258-9.087-7.805c-0.424-0.353-0.482-0.983-0.129-1.408c0.354-0.424,0.984-0.481,1.409-0.129
					c3.078,2.56,6.152,5.199,9.135,7.846c0.413,0.366,0.451,0.998,0.084,1.412C1919.716,263.279,1919.441,263.393,1919.166,263.393z
					 M1900.731,248.058c-0.215,0-0.432-0.069-0.614-0.211c-3.118-2.432-6.326-4.855-9.536-7.205
					c-0.446-0.326-0.542-0.951-0.216-1.398c0.326-0.445,0.952-0.543,1.398-0.216c3.226,2.361,6.45,4.797,9.584,7.24
					c0.436,0.34,0.513,0.969,0.174,1.404C1901.323,247.926,1901.028,248.058,1900.731,248.058z M1881.389,233.899
					c-0.195,0-0.392-0.057-0.565-0.176c-3.259-2.239-6.611-4.471-9.963-6.632c-0.464-0.3-0.598-0.919-0.298-1.383
					c0.299-0.465,0.919-0.597,1.382-0.299c3.368,2.173,6.736,4.415,10.012,6.665c0.455,0.313,0.571,0.936,0.258,1.391
					C1882.021,233.748,1881.708,233.899,1881.389,233.899z M1861.222,220.889c-0.177,0-0.355-0.047-0.518-0.145
					c-3.373-2.044-6.85-4.086-10.333-6.067c-0.48-0.273-0.647-0.884-0.375-1.363c0.272-0.481,0.882-0.649,1.364-0.375
					c3.5,1.99,6.992,4.041,10.381,6.095c0.473,0.286,0.624,0.901,0.337,1.374C1861.891,220.717,1861.561,220.889,1861.222,220.889z
					 M1840.343,209.007c-0.159,0-0.32-0.038-0.47-0.118c-3.494-1.866-7.078-3.722-10.65-5.515c-0.494-0.247-0.693-0.849-0.446-1.342
					c0.248-0.493,0.849-0.694,1.342-0.445c3.588,1.8,7.187,3.663,10.696,5.538c0.487,0.26,0.671,0.866,0.411,1.352
					C1841.046,208.815,1840.7,209.007,1840.343,209.007z M1818.858,198.226c-0.143,0-0.288-0.03-0.426-0.096
					c-3.582-1.686-7.255-3.362-10.917-4.979c-0.505-0.224-0.734-0.814-0.511-1.319c0.223-0.506,0.814-0.732,1.319-0.511
					c3.676,1.624,7.364,3.307,10.961,5c0.5,0.236,0.714,0.832,0.479,1.331C1819.593,198.014,1819.233,198.226,1818.858,198.226z
					 M1796.864,188.505c-0.127,0-0.257-0.024-0.382-0.076c-3.643-1.51-7.391-3.014-11.14-4.471c-0.515-0.199-0.77-0.779-0.57-1.294
					c0.2-0.514,0.778-0.767,1.294-0.57c3.762,1.462,7.524,2.972,11.181,4.487c0.51,0.211,0.752,0.797,0.541,1.307
					C1797.629,188.273,1797.257,188.505,1796.864,188.505z M1774.449,179.795c-0.113,0-0.229-0.02-0.342-0.061
					c-3.705-1.348-7.514-2.689-11.322-3.985c-0.523-0.178-0.802-0.746-0.625-1.268c0.178-0.523,0.745-0.808,1.269-0.624
					c3.821,1.301,7.644,2.646,11.361,3.999c0.519,0.188,0.787,0.763,0.598,1.281
					C1775.241,179.543,1774.858,179.795,1774.449,179.795z M1751.689,172.044c-0.101,0-0.203-0.015-0.304-0.047
					c-3.757-1.195-7.616-2.382-11.47-3.526c-0.529-0.157-0.831-0.714-0.674-1.244c0.157-0.528,0.711-0.825,1.243-0.674
					c3.867,1.148,7.738,2.339,11.507,3.538c0.526,0.168,0.817,0.729,0.65,1.257C1752.506,171.773,1752.113,172.044,1751.689,172.044
					z M1728.649,165.201c-0.088,0-0.178-0.012-0.267-0.036c-3.814-1.056-7.713-2.096-11.588-3.093
					c-0.535-0.138-0.857-0.683-0.719-1.218c0.137-0.535,0.682-0.857,1.217-0.72c3.887,1,7.798,2.044,11.624,3.103
					c0.532,0.147,0.844,0.698,0.697,1.23C1729.49,164.911,1729.088,165.201,1728.649,165.201z M1705.389,159.211
					c-0.077,0-0.155-0.009-0.233-0.027c-3.865-0.923-7.795-1.826-11.682-2.686c-0.54-0.119-0.88-0.653-0.761-1.192
					c0.119-0.54,0.655-0.879,1.192-0.761c3.897,0.862,7.839,1.769,11.715,2.693c0.537,0.128,0.868,0.668,0.74,1.205
					C1706.251,158.902,1705.841,159.211,1705.389,159.211z M1681.956,154.026c-0.066,0-0.133-0.007-0.201-0.02
					c-3.875-0.791-7.83-1.566-11.753-2.304c-0.543-0.102-0.9-0.624-0.798-1.167c0.102-0.543,0.62-0.902,1.167-0.798
					c3.934,0.739,7.899,1.516,11.785,2.31c0.541,0.11,0.89,0.639,0.78,1.18C1682.838,153.7,1682.421,154.026,1681.956,154.026z
					 M1311.238,149.965c-0.484,0-0.91-0.352-0.987-0.846c-0.085-0.546,0.288-1.058,0.834-1.143
					c3.853-0.601,7.857-1.198,11.903-1.775c0.542-0.071,1.054,0.303,1.131,0.849c0.078,0.547-0.302,1.054-0.849,1.132
					c-4.037,0.576-8.033,1.172-11.878,1.771C1311.341,149.961,1311.289,149.965,1311.238,149.965z M1658.39,149.596
					c-0.056,0-0.113-0.005-0.171-0.015c-3.868-0.667-7.839-1.321-11.806-1.944c-0.546-0.086-0.918-0.598-0.833-1.144
					c0.085-0.546,0.594-0.92,1.143-0.833c3.976,0.626,7.958,1.281,11.835,1.95c0.544,0.094,0.909,0.611,0.815,1.155
					C1659.29,149.252,1658.868,149.596,1658.39,149.596z M1335.039,146.564c-0.494,0-0.924-0.366-0.99-0.87
					c-0.072-0.548,0.314-1.05,0.861-1.121c3.759-0.493,7.743-0.994,11.938-1.498c0.549-0.063,1.046,0.326,1.112,0.874
					c0.066,0.549-0.325,1.046-0.874,1.112c-4.187,0.502-8.164,1.003-11.916,1.494
					C1335.126,146.561,1335.082,146.564,1335.039,146.564z M1634.681,145.866c-0.047,0-0.094-0.003-0.142-0.01
					c-3.949-0.563-7.952-1.105-11.898-1.612c-0.548-0.07-0.935-0.572-0.864-1.12c0.07-0.547,0.57-0.929,1.119-0.864
					c3.956,0.509,7.968,1.053,11.926,1.616c0.547,0.078,0.927,0.584,0.849,1.131
					C1635.599,145.506,1635.171,145.866,1634.681,145.866z M1358.907,143.694c-0.503,0-0.937-0.379-0.993-0.891
					c-0.06-0.549,0.336-1.043,0.885-1.104c3.849-0.422,7.839-0.842,11.964-1.253c0.553-0.052,1.04,0.346,1.094,0.896
					c0.055,0.55-0.346,1.04-0.896,1.095c-4.118,0.411-8.102,0.829-11.944,1.251C1358.98,143.692,1358.943,143.694,1358.907,143.694z
					 M1610.836,142.799c-0.038,0-0.077-0.002-0.116-0.007c-3.917-0.45-7.935-0.885-11.938-1.292
					c-0.549-0.057-0.95-0.547-0.894-1.097c0.056-0.549,0.543-0.941,1.096-0.894c4.013,0.408,8.038,0.845,11.965,1.296
					c0.549,0.063,0.942,0.559,0.879,1.107C1611.769,142.423,1611.337,142.799,1610.836,142.799z M1382.827,141.307
					c-0.512,0-0.948-0.391-0.995-0.91c-0.049-0.55,0.356-1.036,0.906-1.086c3.896-0.35,7.893-0.691,11.986-1.021
					c0.548-0.046,1.032,0.366,1.077,0.917c0.044,0.551-0.366,1.033-0.917,1.077c-4.087,0.327-8.077,0.668-11.967,1.019
					C1382.887,141.306,1382.856,141.307,1382.827,141.307z M1586.917,140.364c-0.03,0-0.06-0.001-0.09-0.004
					c-3.928-0.351-7.955-0.684-11.969-0.991c-0.551-0.042-0.963-0.522-0.921-1.073s0.52-0.957,1.073-0.921
					c4.022,0.308,8.058,0.643,11.994,0.993c0.55,0.049,0.956,0.535,0.907,1.085C1587.865,139.973,1587.429,140.364,1586.917,140.364
					z M1406.788,139.384c-0.52,0-0.959-0.402-0.997-0.93c-0.039-0.551,0.376-1.029,0.927-1.068c3.926-0.277,7.928-0.541,12.003-0.79
					c0.553-0.043,1.025,0.386,1.059,0.938c0.034,0.551-0.386,1.025-0.937,1.059c-4.068,0.249-8.064,0.513-11.984,0.79
					C1406.835,139.383,1406.812,139.384,1406.788,139.384z M1562.943,138.526c-0.022,0-0.044-0.001-0.066-0.002
					c-3.938-0.255-7.973-0.491-11.991-0.705c-0.552-0.028-0.975-0.5-0.946-1.051c0.029-0.552,0.518-0.958,1.051-0.946
					c4.026,0.214,8.068,0.451,12.014,0.706c0.551,0.036,0.969,0.512,0.934,1.063C1563.906,138.12,1563.466,138.526,1562.943,138.526
					z M1430.783,137.92c-0.528,0-0.97-0.415-0.998-0.948c-0.028-0.552,0.396-1.022,0.947-1.051
					c3.947-0.202,7.953-0.389,12.016-0.559c0.563-0.024,1.019,0.406,1.041,0.957c0.023,0.552-0.405,1.018-0.957,1.041
					c-4.057,0.17-8.057,0.356-11.997,0.559C1430.817,137.92,1430.8,137.92,1430.783,137.92z M1538.931,137.255
					c-0.014,0-0.028,0-0.042-0.001c-4.025-0.166-8.027-0.31-12.005-0.43c-0.552-0.018-0.986-0.479-0.969-1.03
					c0.017-0.553,0.475-0.985,1.03-0.97c3.984,0.121,7.994,0.266,12.026,0.432c0.552,0.022,0.981,0.488,0.958,1.04
					C1539.907,136.834,1539.464,137.255,1538.931,137.255z M1454.8,136.92c-0.538,0-0.982-0.427-0.999-0.968
					c-0.018-0.553,0.416-1.014,0.968-1.032c3.961-0.126,7.971-0.234,12.025-0.322c0.007,0,0.014,0,0.021,0
					c0.542,0,0.988,0.434,1,0.979c0.012,0.552-0.426,1.009-0.978,1.021c-4.048,0.088-8.05,0.196-12.005,0.321
					C1454.822,136.92,1454.811,136.92,1454.8,136.92z M1514.896,136.526c-0.007,0-0.013,0-0.02,0
					c-4.034-0.079-8.038-0.135-12.012-0.17c-0.552-0.005-0.996-0.457-0.991-1.009c0.005-0.549,0.452-0.991,1-0.991
					c0.003,0,0.006,0,0.009,0c3.981,0.035,7.993,0.091,12.033,0.17c0.552,0.011,0.991,0.468,0.98,1.02
					C1515.885,136.092,1515.439,136.526,1514.896,136.526z M1478.832,136.394c-0.547,0-0.993-0.441-1-0.988
					c-0.006-0.552,0.436-1.005,0.988-1.012c3.972-0.047,7.982-0.074,12.029-0.08h0.001c0.552,0,0.999,0.447,1,0.998
					c0,0.553-0.446,1.001-0.999,1.002c-4.04,0.006-8.043,0.033-12.008,0.08C1478.84,136.394,1478.836,136.394,1478.832,136.394z"/>
			</g>
			<g>
				<polygon style="fill:#7D97F4;" points="1257.951,137.705 1266.572,162.359 1246.169,157.598 				"/>
				<path style="fill:#91B3FA;" d="M1142.139,162.32l87,35.119c1.666,0.672,3.533,0.638,5.173-0.095
					c1.64-0.733,2.911-2.102,3.52-3.792l31.969-88.679c0.366-1.015,0.08-2.151-0.724-2.872c-0.804-0.72-1.964-0.881-2.933-0.407
					L1142.139,162.32z"/>
				<polygon style="fill:#7D97F4;" points="1257.944,137.71 1142.139,162.32 1252.829,152.038 1255.511,158.773 				"/>
				<polygon style="fill:#7D97F4;" points="1249.732,160.509 1266.572,162.359 1252.829,152.038 				"/>
			</g>
		</g>
	</g>
</g>
</svg>
