<svg width="560" height="100" viewBox="0 0 560 100" xmlns="http://www.w3.org/2000/svg">
  <rect x="0"   y="0" width="76" height="100" rx="12" fill="#061F2A"/>
  <text x="38"  y="72" font-family="system-ui" font-size="8" fill="white" opacity="0.8" text-anchor="middle">#061F2A</text>
  <text x="38"  y="86" font-family="system-ui" font-size="7" fill="white" opacity="0.5" text-anchor="middle">Dark BG</text>
  <rect x="84"  y="0" width="76" height="100" rx="12" fill="#0A3D52"/>
  <text x="122" y="72" font-family="system-ui" font-size="8" fill="white" opacity="0.8" text-anchor="middle">#0A3D52</text>
  <text x="122" y="86" font-family="system-ui" font-size="7" fill="white" opacity="0.5" text-anchor="middle">Deep</text>
  <rect x="168" y="0" width="76" height="100" rx="12" fill="#0D5C7A"/>
  <text x="206" y="72" font-family="system-ui" font-size="8" fill="white" opacity="0.9" text-anchor="middle">#0D5C7A</text>
  <text x="206" y="86" font-family="system-ui" font-size="7" fill="white" opacity="0.6" text-anchor="middle">PRIMÁRIA</text>
  <rect x="252" y="0" width="76" height="100" rx="12" fill="#1280A8"/>
  <text x="290" y="72" font-family="system-ui" font-size="8" fill="white" opacity="0.8" text-anchor="middle">#1280A8</text>
  <text x="290" y="86" font-family="system-ui" font-size="7" fill="white" opacity="0.5" text-anchor="middle">Active</text>
  <rect x="336" y="0" width="76" height="100" rx="12" fill="#2AABCF"/>
  <text x="374" y="72" font-family="system-ui" font-size="8" fill="#0A3D52" text-anchor="middle">#2AABCF</text>
  <text x="374" y="86" font-family="system-ui" font-size="7" fill="#0A3D52" opacity="0.6" text-anchor="middle">Hover/Dark</text>
  <rect x="420" y="0" width="76" height="100" rx="12" fill="#A8DDE8"/>
  <text x="458" y="72" font-family="system-ui" font-size="8" fill="#0A3D52" text-anchor="middle">#A8DDE8</text>
  <text x="458" y="86" font-family="system-ui" font-size="7" fill="#0A3D52" opacity="0.6" text-anchor="middle">Light</text>
  <rect x="504" y="0" width="56" height="100" rx="12" fill="#E8F5F8" stroke="#C8E8EF" stroke-width="1"/>
  <text x="532" y="72" font-family="system-ui" font-size="7" fill="#0A3D52" text-anchor="middle">#E8F5F8</text>
  <text x="532" y="86" font-family="system-ui" font-size="7" fill="#0A3D52" opacity="0.6" text-anchor="middle">BG</text>
</svg>
